<?xml version="1.0" encoding="UTF-8"?>
<!DOCTYPE svg PUBLIC "-//W3C//DTD SVG 1.1//EN" "http://www.w3.org/Graphics/SVG/1.1/DTD/svg11.dtd">
<svg xmlns="http://www.w3.org/2000/svg" version="1.1" width="217px" height="217px" style="shape-rendering:geometricPrecision; text-rendering:geometricPrecision; image-rendering:optimizeQuality; fill-rule:evenodd; clip-rule:evenodd" xmlns:xlink="http://www.w3.org/1999/xlink">
<g><path style="opacity:0.977" fill="#642e12" d="M 174.5,33.5 C 174.167,34.5 173.5,35.1667 172.5,35.5C 153.144,19.0751 130.811,12.4084 105.5,15.5C 76.5491,22.2774 56.7158,39.6108 46,67.5C 45.023,69.74 44.523,72.0733 44.5,74.5C 42.4919,80.5426 41.4919,86.8759 41.5,93.5C 40.8333,93.5 40.1667,93.5 39.5,93.5C 39.5,92.1667 39.5,90.8333 39.5,89.5C 39.5,87.5 39.5,85.5 39.5,83.5C 40.4511,82.0813 40.7845,80.4147 40.5,78.5C 41.5623,73.313 43.229,68.313 45.5,63.5C 45,63.1667 44.5,62.8333 44,62.5C 40.6667,63.8333 37.3333,65.1667 34,66.5C 30.1526,71.8708 27.6526,77.8708 26.5,84.5C 26.5,85.1667 26.1667,85.5 25.5,85.5C 26.1392,78.2503 27.8059,71.2503 30.5,64.5C 31.8333,64.1667 31.8333,63.8333 30.5,63.5C 30.5,63.1667 30.5,62.8333 30.5,62.5C 34.4147,57.7277 38.248,52.7277 42,47.5C 45.8666,43.2984 50.0332,39.4651 54.5,36C 69.4751,26.179 85.4751,18.5123 102.5,13C 129.988,8.22564 153.988,15.059 174.5,33.5 Z"/></g>
<g><path style="opacity:1" fill="#f7cf24" d="M 172.5,35.5 C 172.5,35.8333 172.5,36.1667 172.5,36.5C 171.833,37.8333 170.833,38.8333 169.5,39.5C 169.027,40.9063 168.027,41.573 166.5,41.5C 148.834,26.75 128.834,21.75 106.5,26.5C 103.772,26.1706 101.438,26.8372 99.5,28.5C 97.4471,28.4021 95.7804,29.0687 94.5,30.5C 90.4945,31.4977 87.1612,33.4977 84.5,36.5C 82.9731,36.427 81.9731,37.0937 81.5,38.5C 79.5956,38.7376 78.2623,39.7376 77.5,41.5C 76.8333,41.5 76.5,41.8333 76.5,42.5C 74.8333,43.5 73.5,44.8333 72.5,46.5C 71.8333,46.5 71.5,46.8333 71.5,47.5C 69.8333,48.5 68.5,49.8333 67.5,51.5C 65.412,53.3356 64.0787,55.6689 63.5,58.5C 62.8333,58.5 62.5,58.8333 62.5,59.5C 60.9925,61.1815 59.9925,63.1815 59.5,65.5C 58.6618,65.8417 58.3284,66.5084 58.5,67.5C 57.2616,69.2143 56.595,71.2143 56.5,73.5C 55.6618,73.8417 55.3284,74.5084 55.5,75.5C 54.2318,77.9052 53.5651,80.5718 53.5,83.5C 52.8333,87.8333 52.1667,92.1667 51.5,96.5C 49.7839,96.3713 48.1172,96.038 46.5,95.5C 47.7143,93.192 47.7143,90.8587 46.5,88.5C 45.8313,90.6309 45.1646,92.6309 44.5,94.5C 43.209,94.7373 42.209,94.404 41.5,93.5C 41.4919,86.8759 42.4919,80.5426 44.5,74.5C 49.4987,62.4979 56.4987,51.8312 65.5,42.5C 65.369,43.2389 65.5357,43.9056 66,44.5C 67.5,43 69,41.5 70.5,40C 69.9056,39.5357 69.2389,39.369 68.5,39.5C 70.2393,36.7573 72.5726,34.7573 75.5,33.5C 78.3098,30.8644 81.3098,28.3644 84.5,26C 91.3132,21.9267 98.3132,18.4267 105.5,15.5C 130.811,12.4084 153.144,19.0751 172.5,35.5 Z"/></g>
<g><path style="opacity:1" fill="#ab6f07" d="M 126.5,20.5 C 126.735,19.9033 127.235,19.5699 128,19.5C 129.5,20 131,20.5 132.5,21C 130.402,21.6776 128.402,21.5109 126.5,20.5 Z"/></g>
<g><path style="opacity:1" fill="#f9f4e5" d="M 105.5,15.5 C 98.3132,18.4267 91.3132,21.9267 84.5,26C 81.3098,28.3644 78.3098,30.8644 75.5,33.5C 72.5726,34.7573 70.2393,36.7573 68.5,39.5C 67.1667,40.1667 66.1667,41.1667 65.5,42.5C 56.4987,51.8312 49.4987,62.4979 44.5,74.5C 44.523,72.0733 45.023,69.74 46,67.5C 56.7158,39.6108 76.5491,22.2774 105.5,15.5 Z"/></g>
<g><path style="opacity:1" fill="#a76a06" d="M 102.5,20.5 C 106.315,20.7117 106.315,21.3784 102.5,22.5C 101.833,22.3333 101.167,22.1667 100.5,22C 101.416,21.7216 102.082,21.2216 102.5,20.5 Z"/></g>
<g><path style="opacity:1" fill="#a46605" d="M 140.5,22.5 C 142.593,23.0447 144.593,23.878 146.5,25C 143.797,25.6052 141.797,24.7719 140.5,22.5 Z"/></g>
<g><path style="opacity:1" fill="#f3ede4" d="M 166.5,41.5 C 174.44,49.0902 180.774,57.7568 185.5,67.5C 188.384,73.1522 190.05,79.1522 190.5,85.5C 188.449,79.7292 186.116,74.0626 183.5,68.5C 179.417,59.0805 173.417,51.0805 165.5,44.5C 148.704,29.7089 129.038,23.7089 106.5,26.5C 128.834,21.75 148.834,26.75 166.5,41.5 Z"/></g>
<g><path style="opacity:1" fill="#a76a06" d="M 91.5,24.5 C 92.7733,25.0768 92.7733,25.7435 91.5,26.5C 90.2322,27.4279 88.8989,27.5946 87.5,27C 89.0664,26.3918 90.3998,25.5585 91.5,24.5 Z"/></g>
<g><path style="opacity:1" fill="#69341b" d="M 106.5,26.5 C 129.038,23.7089 148.704,29.7089 165.5,44.5C 164.833,45.8333 163.833,46.8333 162.5,47.5C 159.672,45.2519 156.672,43.2519 153.5,41.5C 149.896,38.6907 145.896,36.3574 141.5,34.5C 132.138,31.2568 122.471,29.5902 112.5,29.5C 110.265,29.2053 108.265,29.5386 106.5,30.5C 106.167,30.5 105.833,30.5 105.5,30.5C 103.585,30.2155 101.919,30.5489 100.5,31.5C 100.167,31.5 99.8333,31.5 99.5,31.5C 97.597,31.7959 95.9303,32.4625 94.5,33.5C 93.209,33.2627 92.209,33.596 91.5,34.5C 90.5084,34.3284 89.8417,34.6618 89.5,35.5C 88.0413,35.4326 86.7079,35.7659 85.5,36.5C 85.1667,36.5 84.8333,36.5 84.5,36.5C 87.1612,33.4977 90.4945,31.4977 94.5,30.5C 97.1522,30.5905 99.4855,29.9238 101.5,28.5C 103.306,27.9759 104.972,27.3092 106.5,26.5 Z"/></g>
<g><path style="opacity:1" fill="#f8f2e2" d="M 106.5,26.5 C 104.972,27.3092 103.306,27.9759 101.5,28.5C 100.833,28.5 100.167,28.5 99.5,28.5C 101.438,26.8372 103.772,26.1706 106.5,26.5 Z"/></g>
<g><path style="opacity:1" fill="#a06104" d="M 153.5,29.5 C 155.263,28.6655 156.93,29.1655 158.5,31C 156.718,31.1218 155.052,30.6218 153.5,29.5 Z"/></g>
<g><path style="opacity:1" fill="#a5816e" d="M 99.5,28.5 C 100.167,28.5 100.833,28.5 101.5,28.5C 99.4855,29.9238 97.1522,30.5905 94.5,30.5C 95.7804,29.0687 97.4471,28.4021 99.5,28.5 Z"/></g>
<g><path style="opacity:1" fill="#955307" d="M 106.5,30.5 C 108.265,29.5386 110.265,29.2053 112.5,29.5C 112.878,31.921 113.545,34.2543 114.5,36.5C 112.821,35.0003 111.488,33.167 110.5,31C 109.207,30.51 107.873,30.3433 106.5,30.5 Z"/></g>
<g><path style="opacity:1" fill="#e89b0e" d="M 105.5,30.5 C 105.833,30.5 106.167,30.5 106.5,30.5C 107.873,30.3433 109.207,30.51 110.5,31C 111.488,33.167 112.821,35.0003 114.5,36.5C 114.557,37.609 114.89,38.609 115.5,39.5C 113.435,39.5172 111.435,39.8505 109.5,40.5C 107.581,37.3398 106.248,34.0065 105.5,30.5 Z"/></g>
<g><path style="opacity:1" fill="#e4980e" d="M 112.5,29.5 C 122.471,29.5902 132.138,31.2568 141.5,34.5C 142.167,36.1667 142.833,37.8333 143.5,39.5C 141.167,40.5 139.5,42.1667 138.5,44.5C 137.651,42.4999 136.151,41.1666 134,40.5C 128.194,39.4801 122.361,38.6468 116.5,38C 115.956,37.2828 115.289,36.7828 114.5,36.5C 113.545,34.2543 112.878,31.921 112.5,29.5 Z"/></g>
<g><path style="opacity:1" fill="#a35d05" d="M 100.5,31.5 C 101.919,30.5489 103.585,30.2155 105.5,30.5C 106.248,34.0065 107.581,37.3398 109.5,40.5C 109.167,40.5 108.833,40.5 108.5,40.5C 107.024,38.2314 105.524,35.8981 104,33.5C 103.184,32.1772 102.017,31.5106 100.5,31.5 Z"/></g>
<g><path style="opacity:1" fill="#a86b06" d="M 75.5,33.5 C 82.0089,30.8626 82.1755,31.5293 76,35.5C 75.5357,34.9056 75.369,34.2389 75.5,33.5 Z"/></g>
<g><path style="opacity:1" fill="#96715c" d="M 174.5,33.5 C 175.167,33.8333 175.833,34.1667 176.5,34.5C 182.528,41.8667 188.195,49.5334 193.5,57.5C 192.5,57.8333 191.833,58.5 191.5,59.5C 191.167,59.5 190.833,59.5 190.5,59.5C 186.187,50.5558 180.187,42.8891 172.5,36.5C 172.5,36.1667 172.5,35.8333 172.5,35.5C 173.5,35.1667 174.167,34.5 174.5,33.5 Z"/></g>
<g><path style="opacity:0.248" fill="#fcfbfa" d="M 176.5,34.5 C 184.845,39.0057 192.512,44.5057 199.5,51C 197.6,53.3353 195.6,55.502 193.5,57.5C 188.195,49.5334 182.528,41.8667 176.5,34.5 Z"/></g>
<g><path style="opacity:1" fill="#ab6e07" d="M 169.5,39.5 C 167.606,38.9524 165.94,37.9524 164.5,36.5C 166.733,35.9839 168.4,36.9839 169.5,39.5 Z"/></g>
<g><path style="opacity:1" fill="#a25d03" d="M 91.5,34.5 C 93.021,38.5587 94.8543,42.5587 97,46.5C 97.8159,47.8228 98.9826,48.4894 100.5,48.5C 100.167,49.5 99.5,50.1667 98.5,50.5C 95.2484,45.6657 92.2484,40.6657 89.5,35.5C 89.8417,34.6618 90.5084,34.3284 91.5,34.5 Z"/></g>
<g><path style="opacity:1" fill="#a56004" d="M 99.5,31.5 C 99.0766,32.2646 98.7432,33.0979 98.5,34C 99.6513,36.4649 100.651,38.9649 101.5,41.5C 99.5259,39.572 98.0259,37.2387 97,34.5C 96.3292,33.7476 95.4959,33.4142 94.5,33.5C 95.9303,32.4625 97.597,31.7959 99.5,31.5 Z"/></g>
<g><path style="opacity:1" fill="#e99d0e" d="M 99.5,31.5 C 99.8333,31.5 100.167,31.5 100.5,31.5C 102.017,31.5106 103.184,32.1772 104,33.5C 105.524,35.8981 107.024,38.2314 108.5,40.5C 106.793,45.2917 104.46,45.6251 101.5,41.5C 100.651,38.9649 99.6513,36.4649 98.5,34C 98.7432,33.0979 99.0766,32.2646 99.5,31.5 Z"/></g>
<g><path style="opacity:1" fill="#693316" d="M 115.5,39.5 C 116.167,39.8333 116.833,40.1667 117.5,40.5C 123.574,42.3024 129.574,44.3024 135.5,46.5C 135.179,48.0481 134.179,48.7148 132.5,48.5C 127.035,47.2336 121.701,45.567 116.5,43.5C 116.083,42.8761 115.416,42.5427 114.5,42.5C 99.589,53.9025 85.089,65.9025 71,78.5C 71.3657,89.6371 72.8657,100.637 75.5,111.5C 72.8883,110.221 70.5549,108.555 68.5,106.5C 67.9383,98.6924 66.605,91.0258 64.5,83.5C 64.5569,82.391 64.8902,81.391 65.5,80.5C 66.4013,79.7095 67.0679,78.7095 67.5,77.5C 68.5274,75.8058 69.8608,74.4725 71.5,73.5C 72.5,73.1667 73.1667,72.5 73.5,71.5C 74.5,70.8333 75.5,70.1667 76.5,69.5C 77.5,68.5 78.5,67.5 79.5,66.5C 80.5,66.1667 81.1667,65.5 81.5,64.5C 82.1667,64.5 82.5,64.1667 82.5,63.5C 84.2303,62.9744 85.5637,61.9744 86.5,60.5C 87.5,60.1667 88.1667,59.5 88.5,58.5C 89.8717,57.4884 91.205,56.4884 92.5,55.5C 93.1667,55.5 93.5,55.1667 93.5,54.5C 95.1667,53.1667 96.8333,51.8333 98.5,50.5C 99.5,50.1667 100.167,49.5 100.5,48.5C 101.627,47.8783 102.627,47.045 103.5,46C 102.418,44.6703 101.751,43.1703 101.5,41.5C 104.46,45.6251 106.793,45.2917 108.5,40.5C 108.833,40.5 109.167,40.5 109.5,40.5C 111.435,39.8505 113.435,39.5172 115.5,39.5 Z"/></g>
<g><path style="opacity:1" fill="#b0760c" d="M 68.5,39.5 C 69.2389,39.369 69.9056,39.5357 70.5,40C 69,41.5 67.5,43 66,44.5C 65.5357,43.9056 65.369,43.2389 65.5,42.5C 66.1667,41.1667 67.1667,40.1667 68.5,39.5 Z"/></g>
<g><path style="opacity:1" fill="#e39b11" d="M 117.5,40.5 C 117.735,39.9033 118.235,39.5699 119,39.5C 124.478,40.6088 129.978,41.6088 135.5,42.5C 136.04,43.7481 136.707,44.9148 137.5,46C 137.272,46.3988 136.938,46.5654 136.5,46.5C 136.167,46.5 135.833,46.5 135.5,46.5C 129.574,44.3024 123.574,42.3024 117.5,40.5 Z"/></g>
<g><path style="opacity:1" fill="#f7d660" d="M 172.5,36.5 C 180.187,42.8891 186.187,50.5558 190.5,59.5C 188.807,62.1841 187.14,64.8508 185.5,67.5C 180.774,57.7568 174.44,49.0902 166.5,41.5C 168.027,41.573 169.027,40.9063 169.5,39.5C 170.833,38.8333 171.833,37.8333 172.5,36.5 Z"/></g>
<g><path style="opacity:1" fill="#e89d0e" d="M 94.5,33.5 C 95.4959,33.4142 96.3292,33.7476 97,34.5C 98.0259,37.2387 99.5259,39.572 101.5,41.5C 101.751,43.1703 102.418,44.6703 103.5,46C 102.627,47.045 101.627,47.8783 100.5,48.5C 98.9826,48.4894 97.8159,47.8228 97,46.5C 94.8543,42.5587 93.021,38.5587 91.5,34.5C 92.209,33.596 93.209,33.2627 94.5,33.5 Z"/></g>
<g><path style="opacity:1" fill="#a96613" d="M 114.5,36.5 C 115.289,36.7828 115.956,37.2828 116.5,38C 122.361,38.6468 128.194,39.4801 134,40.5C 136.151,41.1666 137.651,42.4999 138.5,44.5C 139.11,45.391 139.443,46.391 139.5,47.5C 138.209,47.7373 137.209,47.404 136.5,46.5C 136.938,46.5654 137.272,46.3988 137.5,46C 136.707,44.9148 136.04,43.7481 135.5,42.5C 129.978,41.6088 124.478,40.6088 119,39.5C 118.235,39.5699 117.735,39.9033 117.5,40.5C 116.833,40.1667 116.167,39.8333 115.5,39.5C 114.89,38.609 114.557,37.609 114.5,36.5 Z"/></g>
<g><path style="opacity:1" fill="#d39f4a" d="M 141.5,34.5 C 145.896,36.3574 149.896,38.6907 153.5,41.5C 153.5,42.5 153.5,43.5 153.5,44.5C 152.833,44.5 152.5,44.8333 152.5,45.5C 150.534,46.2545 150.2,47.4212 151.5,49C 155.599,51.0896 159.933,52.2562 164.5,52.5C 165.562,53.5754 165.562,54.5754 164.5,55.5C 159.873,53.5687 155.206,51.7353 150.5,50C 148.267,46.3485 145.934,42.8485 143.5,39.5C 142.833,37.8333 142.167,36.1667 141.5,34.5 Z"/></g>
<g><path style="opacity:1" fill="#e6a119" d="M 153.5,41.5 C 156.672,43.2519 159.672,45.2519 162.5,47.5C 162.5,48.1667 162.833,48.5 163.5,48.5C 163.44,49.0431 163.107,49.3764 162.5,49.5C 160.205,48.5682 157.871,47.7348 155.5,47C 154.619,46.2917 153.953,45.4584 153.5,44.5C 153.5,43.5 153.5,42.5 153.5,41.5 Z"/></g>
<g><path style="opacity:1" fill="#eaa00f" d="M 89.5,35.5 C 92.2484,40.6657 95.2484,45.6657 98.5,50.5C 96.8333,51.8333 95.1667,53.1667 93.5,54.5C 91.2796,49.7283 88.7796,45.0616 86,40.5C 85.51,39.2068 85.3433,37.8734 85.5,36.5C 86.7079,35.7659 88.0413,35.4326 89.5,35.5 Z"/></g>
<g><path style="opacity:1" fill="#eba210" d="M 76.5,42.5 C 80.3527,48.2049 83.6861,54.2049 86.5,60.5C 85.5637,61.9744 84.2303,62.9744 82.5,63.5C 81.407,61.6508 80.0737,59.9842 78.5,58.5C 77.0249,54.2165 75.0249,50.2165 72.5,46.5C 73.5,44.8333 74.8333,43.5 76.5,42.5 Z"/></g>
<g><path style="opacity:1" fill="#eaa010" d="M 81.5,38.5 C 82.4959,38.4142 83.3292,38.7476 84,39.5C 87.1133,44.7287 89.9466,50.062 92.5,55.5C 91.205,56.4884 89.8717,57.4884 88.5,58.5C 84.5842,53.0036 80.9175,47.3369 77.5,41.5C 78.2623,39.7376 79.5956,38.7376 81.5,38.5 Z"/></g>
<g><path style="opacity:1" fill="#9e5a05" d="M 84.5,36.5 C 84.8333,36.5 85.1667,36.5 85.5,36.5C 85.3433,37.8734 85.51,39.2068 86,40.5C 88.7796,45.0616 91.2796,49.7283 93.5,54.5C 93.5,55.1667 93.1667,55.5 92.5,55.5C 89.9466,50.062 87.1133,44.7287 84,39.5C 83.3292,38.7476 82.4959,38.4142 81.5,38.5C 81.9731,37.0937 82.9731,36.427 84.5,36.5 Z"/></g>
<g><path style="opacity:1" fill="#f7cc20" d="M 116.5,43.5 C 121.701,45.567 127.035,47.2336 132.5,48.5C 132.5,49.1667 132.833,49.5 133.5,49.5C 131.115,51.8838 129.115,54.5505 127.5,57.5C 127.167,57.5 126.833,57.5 126.5,57.5C 122.417,55.3043 118.084,54.4709 113.5,55C 103,64.1667 92.5,73.3333 82,82.5C 82.0333,90.2368 82.8666,97.9035 84.5,105.5C 82.1568,108.207 79.8235,110.874 77.5,113.5C 75.0567,102.225 73.2234,90.8916 72,79.5C 84.7954,69.0401 97.2954,58.2068 109.5,47C 111.527,45.1207 113.86,43.954 116.5,43.5 Z"/></g>
<g><path style="opacity:1" fill="#ac6e23" d="M 153.5,44.5 C 153.953,45.4584 154.619,46.2917 155.5,47C 157.871,47.7348 160.205,48.5682 162.5,49.5C 163.107,49.3764 163.44,49.0431 163.5,48.5C 165.167,49.5 166.5,50.8333 167.5,52.5C 166.5,52.5 165.5,52.5 164.5,52.5C 161.563,50.4108 158.23,48.9108 154.5,48C 153.619,47.2917 152.953,46.4584 152.5,45.5C 152.5,44.8333 152.833,44.5 153.5,44.5 Z"/></g>
<g><path style="opacity:1" fill="#a06312" d="M 174.5,44.5 C 176.757,45.5618 177.923,47.2285 178,49.5C 176.198,48.2107 175.031,46.5441 174.5,44.5 Z"/></g>
<g><path style="opacity:1" fill="#997258" d="M 135.5,46.5 C 135.833,46.5 136.167,46.5 136.5,46.5C 137.209,47.404 138.209,47.7373 139.5,47.5C 140.807,48.1534 142.14,48.8201 143.5,49.5C 145.048,46.9925 146.048,47.3259 146.5,50.5C 146.443,51.609 146.11,52.609 145.5,53.5C 145.167,53.5 144.833,53.5 144.5,53.5C 140.833,52.1667 137.167,50.8333 133.5,49.5C 132.833,49.5 132.5,49.1667 132.5,48.5C 134.179,48.7148 135.179,48.0481 135.5,46.5 Z"/></g>
<g><path style="opacity:1" fill="#eaa726" d="M 152.5,45.5 C 152.953,46.4584 153.619,47.2917 154.5,48C 158.23,48.9108 161.563,50.4108 164.5,52.5C 159.933,52.2562 155.599,51.0896 151.5,49C 150.2,47.4212 150.534,46.2545 152.5,45.5 Z"/></g>
<g><path style="opacity:1" fill="#a25d03" d="M 77.5,41.5 C 80.9175,47.3369 84.5842,53.0036 88.5,58.5C 88.1667,59.5 87.5,60.1667 86.5,60.5C 83.6861,54.2049 80.3527,48.2049 76.5,42.5C 76.5,41.8333 76.8333,41.5 77.5,41.5 Z"/></g>
<g><path style="opacity:1" fill="#663116" d="M 146.5,50.5 C 147.833,51.1667 149.167,51.8333 150.5,52.5C 150.328,53.4916 150.662,54.1583 151.5,54.5C 151.753,58.4146 151.087,62.0813 149.5,65.5C 148.508,65.3284 147.842,65.6618 147.5,66.5C 146.395,67.6005 145.062,68.2671 143.5,68.5C 139.963,68.6893 136.63,68.0226 133.5,66.5C 134.833,64.8333 136.167,63.1667 137.5,61.5C 137.833,61.5 138.167,61.5 138.5,61.5C 145.095,65.0824 148.261,63.0824 148,55.5C 147.292,54.6195 146.458,53.9528 145.5,53.5C 146.11,52.609 146.443,51.609 146.5,50.5 Z"/></g>
<g><path style="opacity:1" fill="#f7d45e" d="M 133.5,49.5 C 137.167,50.8333 140.833,52.1667 144.5,53.5C 142.091,55.9024 140.091,58.5691 138.5,61.5C 138.167,61.5 137.833,61.5 137.5,61.5C 134.016,60.3433 130.683,59.01 127.5,57.5C 129.115,54.5505 131.115,51.8838 133.5,49.5 Z"/></g>
<g><path style="opacity:1" fill="#ecba53" d="M 143.5,39.5 C 145.934,42.8485 148.267,46.3485 150.5,50C 155.206,51.7353 159.873,53.5687 164.5,55.5C 165.562,54.5754 165.562,53.5754 164.5,52.5C 165.5,52.5 166.5,52.5 167.5,52.5C 169.127,54.6298 170.96,56.6298 173,58.5C 173.783,60.3185 173.283,61.6518 171.5,62.5C 170.101,59.9463 168.101,58.2796 165.5,57.5C 160.659,55.6641 155.659,53.9974 150.5,52.5C 149.167,51.8333 147.833,51.1667 146.5,50.5C 146.048,47.3259 145.048,46.9925 143.5,49.5C 142.14,48.8201 140.807,48.1534 139.5,47.5C 139.443,46.391 139.11,45.391 138.5,44.5C 139.5,42.1667 141.167,40.5 143.5,39.5 Z"/></g>
<g><path style="opacity:1" fill="#9f5a02" d="M 67.5,51.5 C 69.7964,52.733 71.1298,54.733 71.5,57.5C 69.6736,55.8525 68.3403,53.8525 67.5,51.5 Z"/></g>
<g><path style="opacity:1" fill="#a35e03" d="M 72.5,46.5 C 75.0249,50.2165 77.0249,54.2165 78.5,58.5C 75.7795,55.106 73.4462,51.4394 71.5,47.5C 71.5,46.8333 71.8333,46.5 72.5,46.5 Z"/></g>
<g><path style="opacity:1" fill="#662f12" d="M 126.5,57.5 C 125.167,59.1667 123.833,60.8333 122.5,62.5C 119.702,61.9 117.035,60.9 114.5,59.5C 111.788,61.8848 109.122,64.2181 106.5,66.5C 105.5,66.8333 104.833,67.5 104.5,68.5C 103.5,68.8333 102.833,69.5 102.5,70.5C 100.246,71.1237 98.5794,72.457 97.5,74.5C 95.8089,75.8637 94.1423,77.197 92.5,78.5C 91.5,78.8333 90.8333,79.5 90.5,80.5C 87.6882,82.039 85.6882,84.2057 84.5,87C 85.4397,91.8656 86.4397,96.699 87.5,101.5C 87.5,101.833 87.5,102.167 87.5,102.5C 86.5987,103.29 85.9321,104.29 85.5,105.5C 85.1667,105.5 84.8333,105.5 84.5,105.5C 82.8666,97.9035 82.0333,90.2368 82,82.5C 92.5,73.3333 103,64.1667 113.5,55C 118.084,54.4709 122.417,55.3043 126.5,57.5 Z"/></g>
<g><path style="opacity:1" fill="#b6813e" d="M 150.5,52.5 C 155.659,53.9974 160.659,55.6641 165.5,57.5C 163.379,57.3253 161.379,57.6586 159.5,58.5C 157.493,56.1627 154.827,54.8294 151.5,54.5C 150.662,54.1583 150.328,53.4916 150.5,52.5 Z"/></g>
<g><path style="opacity:1" fill="#ebb61b" d="M 144.5,53.5 C 144.833,53.5 145.167,53.5 145.5,53.5C 146.458,53.9528 147.292,54.6195 148,55.5C 148.261,63.0824 145.095,65.0824 138.5,61.5C 140.091,58.5691 142.091,55.9024 144.5,53.5 Z"/></g>
<g><path style="opacity:1" fill="#edba4e" d="M 151.5,54.5 C 154.827,54.8294 157.493,56.1627 159.5,58.5C 156.484,61.5203 153.817,64.8536 151.5,68.5C 150.833,67.5 150.167,66.5 149.5,65.5C 151.087,62.0813 151.753,58.4146 151.5,54.5 Z"/></g>
<g><path style="opacity:1" fill="#956f5a" d="M 165.5,44.5 C 173.417,51.0805 179.417,59.0805 183.5,68.5C 182.599,69.2905 181.932,70.2905 181.5,71.5C 181.167,71.5 180.833,71.5 180.5,71.5C 180.443,70.391 180.11,69.391 179.5,68.5C 179.068,67.2905 178.401,66.2905 177.5,65.5C 176.645,62.7027 174.979,62.036 172.5,63.5C 171.571,64.6888 171.238,66.0222 171.5,67.5C 170.463,68.9303 169.796,70.597 169.5,72.5C 165.233,77.0348 162.566,82.3681 161.5,88.5C 158.532,88.6261 156.532,90.1261 155.5,93C 156.471,94.4813 157.804,95.3146 159.5,95.5C 159.5,95.8333 159.5,96.1667 159.5,96.5C 158.5,96.8333 157.833,97.5 157.5,98.5C 157.167,98.5 156.833,98.5 156.5,98.5C 152.947,96.9598 151.78,94.2931 153,90.5C 158.97,82.7272 163.804,74.3939 167.5,65.5C 167.415,63.6672 166.748,62.3339 165.5,61.5C 162.898,60.0313 160.731,60.698 159,63.5C 153.291,72.4191 147.458,81.2524 141.5,90C 137.969,91.4064 134.302,92.2397 130.5,92.5C 128.088,92.3059 127.088,90.9726 127.5,88.5C 128.167,87.5 128.833,86.5 129.5,85.5C 129.833,85.5 130.167,85.5 130.5,85.5C 130.5,86.8333 130.5,88.1667 130.5,89.5C 133.5,89.8333 134.833,88.5 134.5,85.5C 134.833,85.5 135.167,85.5 135.5,85.5C 135.5,86.5 135.5,87.5 135.5,88.5C 138.344,88.6574 140.011,87.324 140.5,84.5C 141.974,83.5637 142.974,82.2303 143.5,80.5C 145.167,77.8333 146.833,75.1667 148.5,72.5C 149.974,71.5637 150.974,70.2303 151.5,68.5C 153.817,64.8536 156.484,61.5203 159.5,58.5C 161.379,57.6586 163.379,57.3253 165.5,57.5C 168.101,58.2796 170.101,59.9463 171.5,62.5C 173.283,61.6518 173.783,60.3185 173,58.5C 170.96,56.6298 169.127,54.6298 167.5,52.5C 166.5,50.8333 165.167,49.5 163.5,48.5C 162.833,48.5 162.5,48.1667 162.5,47.5C 163.833,46.8333 164.833,45.8333 165.5,44.5 Z"/></g>
<g><path style="opacity:1" fill="#a66a17" d="M 182.5,56.5 C 182.56,55.9569 182.893,55.6236 183.5,55.5C 184.624,56.914 185.624,58.414 186.5,60C 186.167,60.1667 185.833,60.3333 185.5,60.5C 184.479,59.0986 183.479,57.7653 182.5,56.5 Z"/></g>
<g><path style="opacity:1" fill="#eda811" d="M 67.5,51.5 C 68.3403,53.8525 69.6736,55.8525 71.5,57.5C 72.0787,60.3311 73.412,62.6644 75.5,64.5C 76.038,66.1172 76.3713,67.7839 76.5,69.5C 75.5,70.1667 74.5,70.8333 73.5,71.5C 72.1779,71.67 71.0113,71.3366 70,70.5C 67.5361,66.5661 65.3694,62.5661 63.5,58.5C 64.0787,55.6689 65.412,53.3356 67.5,51.5 Z"/></g>
<g><path style="opacity:1" fill="#e9a310" d="M 71.5,47.5 C 73.4462,51.4394 75.7795,55.106 78.5,58.5C 78.9925,60.8185 79.9925,62.8185 81.5,64.5C 81.1667,65.5 80.5,66.1667 79.5,66.5C 77.9382,66.2671 76.6049,65.6005 75.5,64.5C 74.9213,61.6689 73.588,59.3356 71.5,57.5C 71.1298,54.733 69.7964,52.733 67.5,51.5C 68.5,49.8333 69.8333,48.5 71.5,47.5 Z"/></g>
<g><path style="opacity:1" fill="#916a57" d="M 126.5,57.5 C 126.833,57.5 127.167,57.5 127.5,57.5C 130.683,59.01 134.016,60.3433 137.5,61.5C 136.167,63.1667 134.833,64.8333 133.5,66.5C 133.167,66.5 132.833,66.5 132.5,66.5C 129.246,64.9709 125.913,63.6376 122.5,62.5C 123.833,60.8333 125.167,59.1667 126.5,57.5 Z"/></g>
<g><path style="opacity:0.947" fill="#622c12" d="M 193.5,57.5 C 210.087,89.9075 209.42,121.908 191.5,153.5C 190.22,154.931 188.553,155.598 186.5,155.5C 203.974,129.185 207.307,101.185 196.5,71.5C 194.825,67.466 193.158,63.466 191.5,59.5C 191.833,58.5 192.5,57.8333 193.5,57.5 Z"/></g>
<g><path style="opacity:0.902" fill="#417702" d="M 30.5,62.5 C 30.5,62.8333 30.5,63.1667 30.5,63.5C 30.5,63.8333 30.5,64.1667 30.5,64.5C 27.8059,71.2503 26.1392,78.2503 25.5,85.5C 25.5,86.8333 25.5,88.1667 25.5,89.5C 24.5318,91.6074 24.1984,93.9407 24.5,96.5C 23.1667,99.1667 23.1667,101.833 24.5,104.5C 24.3032,110.545 24.6365,116.545 25.5,122.5C 26.3876,127.072 27.7209,131.405 29.5,135.5C 29.8925,137.284 30.5592,138.95 31.5,140.5C 32.1103,142.434 33.1103,144.101 34.5,145.5C 36.3623,149.542 38.8623,153.208 42,156.5C 40.5508,152.518 38.3841,148.852 35.5,145.5C 35.1075,143.716 34.4408,142.05 33.5,140.5C 33.1075,138.716 32.4408,137.05 31.5,135.5C 29.858,130.934 28.5247,126.267 27.5,121.5C 26.6365,115.545 26.3032,109.545 26.5,103.5C 26.5,101.167 26.5,98.8333 26.5,96.5C 26.5,95.1667 26.5,93.8333 26.5,92.5C 29.1667,92.5 31.8333,92.5 34.5,92.5C 35.9187,93.4511 37.5853,93.7845 39.5,93.5C 40.1667,93.5 40.8333,93.5 41.5,93.5C 42.209,94.404 43.209,94.7373 44.5,94.5C 44.8417,95.3382 45.5084,95.6716 46.5,95.5C 48.1172,96.038 49.7839,96.3713 51.5,96.5C 55.4612,98.4806 59.4612,100.481 63.5,102.5C 63.8417,103.338 64.5084,103.672 65.5,103.5C 66.1667,104.833 67.1667,105.833 68.5,106.5C 70.5549,108.555 72.8883,110.221 75.5,111.5C 75.8333,112.5 76.5,113.167 77.5,113.5C 80.8207,118.152 84.4874,122.485 88.5,126.5C 88.8333,127.167 89.1667,127.833 89.5,128.5C 92.79,134.087 96.79,139.087 101.5,143.5C 104.167,146.833 107.167,149.833 110.5,152.5C 112.883,154.358 115.55,155.692 118.5,156.5C 119.78,157.931 121.447,158.598 123.5,158.5C 125.515,159.924 127.848,160.59 130.5,160.5C 131.919,161.451 133.585,161.784 135.5,161.5C 135.833,161.5 136.167,161.5 136.5,161.5C 141.5,162.833 146.5,162.833 151.5,161.5C 151.833,161.5 152.167,161.5 152.5,161.5C 154.5,161.5 156.5,161.5 158.5,161.5C 159.167,161.5 159.5,161.167 159.5,160.5C 161.5,160.5 163.5,160.5 165.5,160.5C 166.609,160.443 167.609,160.11 168.5,159.5C 171.697,159.595 174.697,158.928 177.5,157.5C 180.63,157.3 183.63,156.634 186.5,155.5C 188.553,155.598 190.22,154.931 191.5,153.5C 199.483,151.001 207.483,148.835 215.5,147C 189.398,171.894 159.065,189.894 124.5,201C 90.475,210.774 59.1417,205.441 30.5,185C 6.02842,162.28 -0.80491,135.114 10,103.5C 11.2709,100.567 12.9376,97.9007 15,95.5C 16.4041,83.217 19.0708,71.217 23,59.5C 23.3076,58.6919 23.8076,58.0253 24.5,57.5C 26.5707,59.1851 28.5707,60.8518 30.5,62.5 Z"/></g>
<g><path style="opacity:1" fill="#a35e03" d="M 71.5,57.5 C 73.588,59.3356 74.9213,61.6689 75.5,64.5C 73.412,62.6644 72.0787,60.3311 71.5,57.5 Z"/></g>
<g><path style="opacity:1" fill="#a46004" d="M 78.5,58.5 C 80.0737,59.9842 81.407,61.6508 82.5,63.5C 82.5,64.1667 82.1667,64.5 81.5,64.5C 79.9925,62.8185 78.9925,60.8185 78.5,58.5 Z"/></g>
<g><path style="opacity:1" fill="#349010" d="M 21.5,94.5 C 20.6522,93.375 19.6522,93.375 18.5,94.5C 19.3021,83.4888 21.6354,72.8221 25.5,62.5C 26.7199,62.8869 27.3865,63.7202 27.5,65C 24.9938,74.9082 22.9938,84.7415 21.5,94.5 Z"/></g>
<g><path style="opacity:1" fill="#a46705" d="M 52.5,61.5 C 53.3764,61.3691 54.0431,61.7025 54.5,62.5C 51.6735,69.0779 51.0069,68.7446 52.5,61.5 Z"/></g>
<g><path style="opacity:1" fill="#e9b451" d="M 122.5,62.5 C 125.913,63.6376 129.246,64.9709 132.5,66.5C 131.89,67.391 131.557,68.391 131.5,69.5C 130.5,69.8333 129.833,70.5 129.5,71.5C 129.062,71.4346 128.728,71.6012 128.5,72C 130.088,73.987 130.921,76.1537 131,78.5C 129.595,77.2695 128.429,75.9361 127.5,74.5C 127.5,74.1667 127.5,73.8333 127.5,73.5C 126.833,72.5 126.167,71.5 125.5,70.5C 124.907,68.0245 123.574,66.5245 121.5,66C 123.852,68.1495 123.685,69.3162 121,69.5C 119.624,69.3158 118.791,68.6491 118.5,67.5C 119.833,65.8333 121.167,64.1667 122.5,62.5 Z"/></g>
<g><path style="opacity:1" fill="#f0c359" d="M 177.5,65.5 C 176.452,67.5338 174.786,68.8671 172.5,69.5C 171.702,69.0431 171.369,68.3764 171.5,67.5C 171.238,66.0222 171.571,64.6888 172.5,63.5C 174.979,62.036 176.645,62.7027 177.5,65.5 Z"/></g>
<g><path style="opacity:1" fill="#f3b407" d="M 40.5,78.5 C 35.9204,80.6935 31.2537,82.6935 26.5,84.5C 27.6526,77.8708 30.1526,71.8708 34,66.5C 37.3333,65.1667 40.6667,63.8333 44,62.5C 44.5,62.8333 45,63.1667 45.5,63.5C 43.229,68.313 41.5623,73.313 40.5,78.5 Z"/></g>
<g><path style="opacity:1" fill="#f7ecce" d="M 116.5,43.5 C 113.86,43.954 111.527,45.1207 109.5,47C 97.2954,58.2068 84.7954,69.0401 72,79.5C 73.2234,90.8916 75.0567,102.225 77.5,113.5C 76.5,113.167 75.8333,112.5 75.5,111.5C 72.8657,100.637 71.3657,89.6371 71,78.5C 85.089,65.9025 99.589,53.9025 114.5,42.5C 115.416,42.5427 116.083,42.8761 116.5,43.5 Z"/></g>
<g><path style="opacity:1" fill="#9f5c03" d="M 63.5,58.5 C 65.3694,62.5661 67.5361,66.5661 70,70.5C 71.0113,71.3366 72.1779,71.67 73.5,71.5C 73.1667,72.5 72.5,73.1667 71.5,73.5C 67.7531,69.3986 64.7531,64.732 62.5,59.5C 62.5,58.8333 62.8333,58.5 63.5,58.5 Z"/></g>
<g><path style="opacity:1" fill="#a76407" d="M 75.5,64.5 C 76.6049,65.6005 77.9382,66.2671 79.5,66.5C 78.5,67.5 77.5,68.5 76.5,69.5C 76.3713,67.7839 76.038,66.1172 75.5,64.5 Z"/></g>
<g><path style="opacity:1" fill="#f9efdd" d="M 165.5,61.5 C 163.61,61.2965 162.11,61.9632 161,63.5C 154.891,73.2744 148.391,82.7744 141.5,92C 138.657,92.4461 135.824,92.9461 133,93.5C 131.93,93.472 131.097,93.1386 130.5,92.5C 134.302,92.2397 137.969,91.4064 141.5,90C 147.458,81.2524 153.291,72.4191 159,63.5C 160.731,60.698 162.898,60.0313 165.5,61.5 Z"/></g>
<g><path style="opacity:1" fill="#eca812" d="M 62.5,59.5 C 64.7531,64.732 67.7531,69.3986 71.5,73.5C 69.8608,74.4725 68.5274,75.8058 67.5,77.5C 64.8333,73.5 62.1667,69.5 59.5,65.5C 59.9925,63.1815 60.9925,61.1815 62.5,59.5 Z"/></g>
<g><path style="opacity:1" fill="#e5a014" d="M 122.5,62.5 C 121.167,64.1667 119.833,65.8333 118.5,67.5C 117.596,68.209 117.263,69.209 117.5,70.5C 116.167,70.8333 114.833,71.1667 113.5,71.5C 113.205,69.5767 112.372,67.9101 111,66.5C 111.437,68.7567 111.937,71.09 112.5,73.5C 112.167,74.5 111.5,75.1667 110.5,75.5C 108.895,72.6223 107.561,69.6223 106.5,66.5C 109.122,64.2181 111.788,61.8848 114.5,59.5C 117.035,60.9 119.702,61.9 122.5,62.5 Z"/></g>
<g><path style="opacity:1" fill="#f0c258" d="M 147.5,66.5 C 148.461,68.2646 148.795,70.2646 148.5,72.5C 146.833,75.1667 145.167,77.8333 143.5,80.5C 143.379,77.1361 143.379,73.8027 143.5,70.5C 143.5,69.8333 143.5,69.1667 143.5,68.5C 145.062,68.2671 146.395,67.6005 147.5,66.5 Z"/></g>
<g><path style="opacity:1" fill="#a36005" d="M 59.5,65.5 C 62.1667,69.5 64.8333,73.5 67.5,77.5C 67.0679,78.7095 66.4013,79.7095 65.5,80.5C 64.454,75.404 62.1207,71.0707 58.5,67.5C 58.3284,66.5084 58.6618,65.8417 59.5,65.5 Z"/></g>
<g><path style="opacity:1" fill="#a56308" d="M 113.5,71.5 C 113.672,72.4916 113.338,73.1583 112.5,73.5C 111.937,71.09 111.437,68.7567 111,66.5C 112.372,67.9101 113.205,69.5767 113.5,71.5 Z"/></g>
<g><path style="opacity:1" fill="#bb8d51" d="M 125.5,70.5 C 122.833,70.5 120.167,70.5 117.5,70.5C 117.263,69.209 117.596,68.209 118.5,67.5C 118.791,68.6491 119.624,69.3158 121,69.5C 123.685,69.3162 123.852,68.1495 121.5,66C 123.574,66.5245 124.907,68.0245 125.5,70.5 Z"/></g>
<g><path style="opacity:1" fill="#db8e0e" d="M 132.5,66.5 C 132.833,66.5 133.167,66.5 133.5,66.5C 136.63,68.0226 139.963,68.6893 143.5,68.5C 143.5,69.1667 143.5,69.8333 143.5,70.5C 142.833,70.5 142.5,70.8333 142.5,71.5C 140.833,72.8333 139.167,74.1667 137.5,75.5C 137.167,71.8333 135.167,69.8333 131.5,69.5C 131.557,68.391 131.89,67.391 132.5,66.5 Z"/></g>
<g><path style="opacity:1" fill="#c79952" d="M 147.5,66.5 C 147.842,65.6618 148.508,65.3284 149.5,65.5C 150.167,66.5 150.833,67.5 151.5,68.5C 150.974,70.2303 149.974,71.5637 148.5,72.5C 148.795,70.2646 148.461,68.2646 147.5,66.5 Z"/></g>
<g><path style="opacity:1" fill="#eabf58" d="M 179.5,68.5 C 180.11,69.391 180.443,70.391 180.5,71.5C 179.167,73.1667 177.833,74.8333 176.5,76.5C 175.833,76.5 175.5,76.8333 175.5,77.5C 174.833,78.1667 174.167,78.8333 173.5,79.5C 171.323,78.4958 170.989,79.1625 172.5,81.5C 171.5,81.8333 170.833,82.5 170.5,83.5C 169.075,81.9689 168.409,82.3023 168.5,84.5C 167.221,87.1117 165.555,89.4451 163.5,91.5C 162.833,91.5 162.5,91.8333 162.5,92.5C 161.094,92.9731 160.427,93.9731 160.5,95.5C 160.167,95.5 159.833,95.5 159.5,95.5C 157.804,95.3146 156.471,94.4813 155.5,93C 156.532,90.1261 158.532,88.6261 161.5,88.5C 162.566,82.3681 165.233,77.0348 169.5,72.5C 172.614,70.6092 175.948,69.2759 179.5,68.5 Z"/></g>
<g><path style="opacity:1" fill="#edab12" d="M 104.5,68.5 C 106.653,70.7937 108.32,73.4604 109.5,76.5C 109.5,76.8333 109.5,77.1667 109.5,77.5C 108.833,77.8333 108.167,78.1667 107.5,78.5C 105.819,75.7972 104.153,73.1305 102.5,70.5C 102.833,69.5 103.5,68.8333 104.5,68.5 Z"/></g>
<g><path style="opacity:1" fill="#eeb015" d="M 131.5,69.5 C 135.167,69.8333 137.167,71.8333 137.5,75.5C 136.655,76.6715 135.989,78.0048 135.5,79.5C 134.167,80.5 132.833,81.5 131.5,82.5C 133.136,78.3517 132.47,74.685 129.5,71.5C 129.833,70.5 130.5,69.8333 131.5,69.5 Z"/></g>
<g><path style="opacity:1" fill="#814f34" d="M 183.5,68.5 C 186.116,74.0626 188.449,79.7292 190.5,85.5C 191.979,89.9093 192.646,94.576 192.5,99.5C 192.498,102.686 192.165,105.686 191.5,108.5C 191.768,106.901 191.434,105.568 190.5,104.5C 190.588,100.694 189.921,97.0275 188.5,93.5C 187.264,92.7542 185.93,92.4208 184.5,92.5C 184.5,91.8333 184.833,91.5 185.5,91.5C 186.675,91.719 187.675,91.3857 188.5,90.5C 188.376,89.8933 188.043,89.56 187.5,89.5C 187.5,88.8333 187.5,88.1667 187.5,87.5C 187.672,86.5084 187.338,85.8417 186.5,85.5C 186.5,84.8333 186.5,84.1667 186.5,83.5C 184.833,79.5 183.167,75.5 181.5,71.5C 181.932,70.2905 182.599,69.2905 183.5,68.5 Z"/></g>
<g><path style="opacity:1" fill="#a96404" d="M 106.5,66.5 C 107.561,69.6223 108.895,72.6223 110.5,75.5C 110.5,76.1667 110.167,76.5 109.5,76.5C 108.32,73.4604 106.653,70.7937 104.5,68.5C 104.833,67.5 105.5,66.8333 106.5,66.5 Z"/></g>
<g><path style="opacity:1" fill="#926b58" d="M 117.5,70.5 C 120.167,70.5 122.833,70.5 125.5,70.5C 126.167,71.5 126.833,72.5 127.5,73.5C 126.094,73.9731 125.427,74.9731 125.5,76.5C 125.167,76.5 124.833,76.5 124.5,76.5C 124.573,74.9731 123.906,73.9731 122.5,73.5C 119.683,72.1632 117.183,72.8299 115,75.5C 114.848,79.2523 115.348,82.919 116.5,86.5C 114.833,87.8333 113.167,89.1667 111.5,90.5C 110.415,86.2396 109.748,81.9062 109.5,77.5C 109.5,77.1667 109.5,76.8333 109.5,76.5C 110.167,76.5 110.5,76.1667 110.5,75.5C 111.5,75.1667 112.167,74.5 112.5,73.5C 113.338,73.1583 113.672,72.4916 113.5,71.5C 114.833,71.1667 116.167,70.8333 117.5,70.5 Z"/></g>
<g><path style="opacity:1" fill="#c09251" d="M 177.5,65.5 C 178.401,66.2905 179.068,67.2905 179.5,68.5C 175.948,69.2759 172.614,70.6092 169.5,72.5C 169.796,70.597 170.463,68.9303 171.5,67.5C 171.369,68.3764 171.702,69.0431 172.5,69.5C 174.786,68.8671 176.452,67.5338 177.5,65.5 Z"/></g>
<g><path style="opacity:1" fill="#eead13" d="M 58.5,67.5 C 62.1207,71.0707 64.454,75.404 65.5,80.5C 64.8902,81.391 64.5569,82.391 64.5,83.5C 63.8333,83.5 63.5,83.8333 63.5,84.5C 60.9044,80.9695 58.5711,77.3029 56.5,73.5C 56.595,71.2143 57.2616,69.2143 58.5,67.5 Z"/></g>
<g><path style="opacity:1" fill="#ebac14" d="M 106.5,80.5 C 105.652,81.625 104.652,81.625 103.5,80.5C 102.788,78.0721 101.788,75.7388 100.5,73.5C 100.833,73.1667 101.167,72.8333 101.5,72.5C 103.675,74.8503 105.342,77.517 106.5,80.5 Z"/></g>
<g><path style="opacity:1" fill="#f2c659" d="M 142.5,71.5 C 141.673,75.8072 141.007,80.1405 140.5,84.5C 140.011,87.324 138.344,88.6574 135.5,88.5C 135.5,87.5 135.5,86.5 135.5,85.5C 137.011,82.4557 137.678,79.1224 137.5,75.5C 139.167,74.1667 140.833,72.8333 142.5,71.5 Z"/></g>
<g><path style="opacity:1" fill="#ba7308" d="M 102.5,70.5 C 104.153,73.1305 105.819,75.7972 107.5,78.5C 107.672,79.4916 107.338,80.1583 106.5,80.5C 105.342,77.517 103.675,74.8503 101.5,72.5C 101.167,72.8333 100.833,73.1667 100.5,73.5C 101.788,75.7388 102.788,78.0721 103.5,80.5C 101.864,79.2511 100.697,77.5844 100,75.5C 99.3292,74.7476 98.4959,74.4142 97.5,74.5C 98.5794,72.457 100.246,71.1237 102.5,70.5 Z"/></g>
<g><path style="opacity:1" fill="#bf9050" d="M 143.5,70.5 C 143.379,73.8027 143.379,77.1361 143.5,80.5C 142.974,82.2303 141.974,83.5637 140.5,84.5C 141.007,80.1405 141.673,75.8072 142.5,71.5C 142.5,70.8333 142.833,70.5 143.5,70.5 Z"/></g>
<g><path style="opacity:1" fill="#f8d363" d="M 122.5,73.5 C 123.906,73.9731 124.573,74.9731 124.5,76.5C 122.5,79.1667 120.167,81.5 117.5,83.5C 114.896,77.767 116.563,74.4337 122.5,73.5 Z"/></g>
<g><path style="opacity:1" fill="#663014" d="M 127.5,73.5 C 127.5,73.8333 127.5,74.1667 127.5,74.5C 128.326,78.1359 128.992,81.8026 129.5,85.5C 128.833,86.5 128.167,87.5 127.5,88.5C 127.167,88.5 126.833,88.5 126.5,88.5C 126.354,84.4809 126.021,80.4809 125.5,76.5C 125.427,74.9731 126.094,73.9731 127.5,73.5 Z"/></g>
<g><path style="opacity:1" fill="#a56204" d="M 56.5,73.5 C 58.5711,77.3029 60.9044,80.9695 63.5,84.5C 63.6716,85.4916 63.3382,86.1583 62.5,86.5C 60.5274,82.543 58.1941,78.8763 55.5,75.5C 55.3284,74.5084 55.6618,73.8417 56.5,73.5 Z"/></g>
<g><path style="opacity:1" fill="#eaaa14" d="M 97.5,74.5 C 98.4959,74.4142 99.3292,74.7476 100,75.5C 100.697,77.5844 101.864,79.2511 103.5,80.5C 105.078,82.3747 104.745,83.7081 102.5,84.5C 102.013,83.5266 101.513,82.5266 101,81.5C 100.346,80.3044 99.8457,80.3044 99.5,81.5C 100.456,83.0754 101.123,84.742 101.5,86.5C 100.833,87.8333 99.8333,88.8333 98.5,89.5C 97.8333,89.1667 97.1667,88.8333 96.5,88.5C 95.1667,85.1667 93.8333,81.8333 92.5,78.5C 94.1423,77.197 95.8089,75.8637 97.5,74.5 Z"/></g>
<g><path style="opacity:1" fill="#aa6e06" d="M 48.5,74.5 C 49.709,76.4346 49.5423,78.4346 48,80.5C 47.3224,78.4024 47.4891,76.4024 48.5,74.5 Z"/></g>
<g><path style="opacity:1" fill="#ecb116" d="M 175.5,77.5 C 176.903,83.2313 180.569,85.898 186.5,85.5C 187.338,85.8417 187.672,86.5084 187.5,87.5C 183.302,87.3234 179.302,86.3234 175.5,84.5C 174.544,82.9246 173.877,81.258 173.5,79.5C 174.167,78.8333 174.833,78.1667 175.5,77.5 Z"/></g>
<g><path style="opacity:1" fill="#eeb316" d="M 180.5,71.5 C 180.833,71.5 181.167,71.5 181.5,71.5C 183.167,75.5 184.833,79.5 186.5,83.5C 181.057,84.1164 177.724,81.783 176.5,76.5C 177.833,74.8333 179.167,73.1667 180.5,71.5 Z"/></g>
<g><path style="opacity:1" fill="#fbf6ee" d="M 40.5,78.5 C 40.7845,80.4147 40.4511,82.0813 39.5,83.5C 34.7513,85.3052 30.0846,87.3052 25.5,89.5C 25.5,88.1667 25.5,86.8333 25.5,85.5C 26.1667,85.5 26.5,85.1667 26.5,84.5C 31.2537,82.6935 35.9204,80.6935 40.5,78.5 Z"/></g>
<g><path style="opacity:1" fill="#c5954d" d="M 137.5,75.5 C 137.678,79.1224 137.011,82.4557 135.5,85.5C 135.167,85.5 134.833,85.5 134.5,85.5C 134.833,83.5 135.167,81.5 135.5,79.5C 135.989,78.0048 136.655,76.6715 137.5,75.5 Z"/></g>
<g><path style="opacity:1" fill="#a56306" d="M 176.5,76.5 C 177.724,81.783 181.057,84.1164 186.5,83.5C 186.5,84.1667 186.5,84.8333 186.5,85.5C 180.569,85.898 176.903,83.2313 175.5,77.5C 175.5,76.8333 175.833,76.5 176.5,76.5 Z"/></g>
<g><path style="opacity:1" fill="#e3b152" d="M 109.5,77.5 C 109.748,81.9062 110.415,86.2396 111.5,90.5C 111.5,90.8333 111.5,91.1667 111.5,91.5C 110.764,93.2294 109.43,94.2294 107.5,94.5C 106.358,90.8832 104.692,87.5498 102.5,84.5C 104.745,83.7081 105.078,82.3747 103.5,80.5C 104.652,81.625 105.652,81.625 106.5,80.5C 107.338,80.1583 107.672,79.4916 107.5,78.5C 108.167,78.1667 108.833,77.8333 109.5,77.5 Z"/></g>
<g><path style="opacity:1" fill="#f2c758" d="M 135.5,79.5 C 135.167,81.5 134.833,83.5 134.5,85.5C 134.833,88.5 133.5,89.8333 130.5,89.5C 130.5,88.1667 130.5,86.8333 130.5,85.5C 130.557,84.391 130.89,83.391 131.5,82.5C 132.833,81.5 134.167,80.5 135.5,79.5 Z"/></g>
<g><path style="opacity:1" fill="#e08e0b" d="M 196.5,71.5 C 207.307,101.185 203.974,129.185 186.5,155.5C 183.63,156.634 180.63,157.3 177.5,157.5C 178.688,156.636 179.855,155.636 181,154.5C 190.901,139.056 196.734,122.223 198.5,104C 197.833,101.667 197.167,99.3333 196.5,97C 198.064,95.1294 198.73,92.296 198.5,88.5C 198.019,82.8022 197.352,77.1355 196.5,71.5 Z"/></g>
<g><path style="opacity:1" fill="#a96505" d="M 92.5,78.5 C 93.8333,81.8333 95.1667,85.1667 96.5,88.5C 94.5,85.8333 92.5,83.1667 90.5,80.5C 90.8333,79.5 91.5,78.8333 92.5,78.5 Z"/></g>
<g><path style="opacity:1" fill="#ab6b0b" d="M 129.5,71.5 C 132.47,74.685 133.136,78.3517 131.5,82.5C 130.89,83.391 130.557,84.391 130.5,85.5C 130.167,85.5 129.833,85.5 129.5,85.5C 128.992,81.8026 128.326,78.1359 127.5,74.5C 128.429,75.9361 129.595,77.2695 131,78.5C 130.921,76.1537 130.088,73.987 128.5,72C 128.728,71.6012 129.062,71.4346 129.5,71.5 Z"/></g>
<g><path style="opacity:1" fill="#ebaf15" d="M 90.5,80.5 C 92.5,83.1667 94.5,85.8333 96.5,88.5C 96.5569,89.609 96.8902,90.609 97.5,91.5C 95.8058,92.5274 94.4725,93.8608 93.5,95.5C 91.4424,93.0734 89.6091,90.4068 88,87.5C 88.4182,91.0032 89.9182,94.0032 92.5,96.5C 92.5,96.8333 92.5,97.1667 92.5,97.5C 90.8333,98.8333 89.1667,100.167 87.5,101.5C 86.4397,96.699 85.4397,91.8656 84.5,87C 85.6882,84.2057 87.6882,82.039 90.5,80.5 Z"/></g>
<g><path style="opacity:1" fill="#a5640b" d="M 173.5,79.5 C 173.877,81.258 174.544,82.9246 175.5,84.5C 179.302,86.3234 183.302,87.3234 187.5,87.5C 187.5,88.1667 187.5,88.8333 187.5,89.5C 183.663,88.5823 179.83,87.5823 176,86.5C 174.341,85.1843 173.175,83.5176 172.5,81.5C 170.989,79.1625 171.323,78.4958 173.5,79.5 Z"/></g>
<g><path style="opacity:1" fill="#f1b81d" d="M 124.5,76.5 C 124.833,76.5 125.167,76.5 125.5,76.5C 126.021,80.4809 126.354,84.4809 126.5,88.5C 124.883,91.7843 122.55,94.4509 119.5,96.5C 118.833,92.1667 118.167,87.8333 117.5,83.5C 120.167,81.5 122.5,79.1667 124.5,76.5 Z"/></g>
<g><path style="opacity:1" fill="#f3c45a" d="M 165.5,61.5 C 166.748,62.3339 167.415,63.6672 167.5,65.5C 163.804,74.3939 158.97,82.7272 153,90.5C 151.78,94.2931 152.947,96.9598 156.5,98.5C 154.322,100.858 152.655,103.525 151.5,106.5C 150.833,106.5 150.167,106.5 149.5,106.5C 144.839,101.2 139.173,100.033 132.5,103C 131.196,103.804 130.529,104.971 130.5,106.5C 132.138,111.741 132.638,117.075 132,122.5C 129.891,124.418 127.725,124.751 125.5,123.5C 123.025,114.599 121.025,105.599 119.5,96.5C 122.55,94.4509 124.883,91.7843 126.5,88.5C 126.833,88.5 127.167,88.5 127.5,88.5C 127.088,90.9726 128.088,92.3059 130.5,92.5C 131.097,93.1386 131.93,93.472 133,93.5C 135.824,92.9461 138.657,92.4461 141.5,92C 148.391,82.7744 154.891,73.2744 161,63.5C 162.11,61.9632 163.61,61.2965 165.5,61.5 Z"/></g>
<g><path style="opacity:1" fill="#de8d0c" d="M 64.5,83.5 C 66.605,91.0258 67.9383,98.6924 68.5,106.5C 67.1667,105.833 66.1667,104.833 65.5,103.5C 66.0967,103.265 66.4301,102.765 66.5,102C 65.5351,96.6816 64.2018,91.5149 62.5,86.5C 63.3382,86.1583 63.6716,85.4916 63.5,84.5C 63.5,83.8333 63.8333,83.5 64.5,83.5 Z"/></g>
<g><path style="opacity:1" fill="#653016" d="M 116.5,86.5 C 117.295,90.4764 117.962,94.4764 118.5,98.5C 117.167,99.8333 115.833,101.167 114.5,102.5C 114.167,102.5 113.833,102.5 113.5,102.5C 113.192,98.6403 112.525,94.9736 111.5,91.5C 111.5,91.1667 111.5,90.8333 111.5,90.5C 113.167,89.1667 114.833,87.8333 116.5,86.5 Z"/></g>
<g><path style="opacity:1" fill="#edb416" d="M 172.5,81.5 C 173.175,83.5176 174.341,85.1843 176,86.5C 179.83,87.5823 183.663,88.5823 187.5,89.5C 188.043,89.56 188.376,89.8933 188.5,90.5C 187.675,91.3857 186.675,91.719 185.5,91.5C 181.41,89.8919 177.077,88.7252 172.5,88C 171.418,86.6703 170.751,85.1703 170.5,83.5C 170.833,82.5 171.5,81.8333 172.5,81.5 Z"/></g>
<g><path style="opacity:1" fill="#f6ba16" d="M 39.5,83.5 C 39.5,85.5 39.5,87.5 39.5,89.5C 37.6316,90.2632 35.9649,91.2632 34.5,92.5C 31.8333,92.5 29.1667,92.5 26.5,92.5C 26.5,93.8333 26.5,95.1667 26.5,96.5C 25.8333,96.5 25.1667,96.5 24.5,96.5C 24.1984,93.9407 24.5318,91.6074 25.5,89.5C 30.0846,87.3052 34.7513,85.3052 39.5,83.5 Z"/></g>
<g><path style="opacity:1" fill="#a66506" d="M 93.5,95.5 C 93.5,95.8333 93.5,96.1667 93.5,96.5C 93.1667,96.5 92.8333,96.5 92.5,96.5C 89.9182,94.0032 88.4182,91.0032 88,87.5C 89.6091,90.4068 91.4424,93.0734 93.5,95.5 Z"/></g>
<g><path style="opacity:1" fill="#bc8a46" d="M 102.5,84.5 C 104.692,87.5498 106.358,90.8832 107.5,94.5C 105.5,91.8333 103.5,89.1667 101.5,86.5C 101.123,84.742 100.456,83.0754 99.5,81.5C 99.8457,80.3044 100.346,80.3044 101,81.5C 101.513,82.5266 102.013,83.5266 102.5,84.5 Z"/></g>
<g><path style="opacity:1" fill="#b3740d" d="M 170.5,83.5 C 170.751,85.1703 171.418,86.6703 172.5,88C 177.077,88.7252 181.41,89.8919 185.5,91.5C 184.833,91.5 184.5,91.8333 184.5,92.5C 180.141,91.4934 175.808,90.3267 171.5,89C 170.601,87.3484 169.601,85.8484 168.5,84.5C 168.409,82.3023 169.075,81.9689 170.5,83.5 Z"/></g>
<g><path style="opacity:1" fill="#ba8a0d" d="M 46.5,95.5 C 45.5084,95.6716 44.8417,95.3382 44.5,94.5C 45.1646,92.6309 45.8313,90.6309 46.5,88.5C 47.7143,90.8587 47.7143,93.192 46.5,95.5 Z"/></g>
<g><path style="opacity:1" fill="#b98640" d="M 96.5,88.5 C 97.1667,88.8333 97.8333,89.1667 98.5,89.5C 99.1667,91.5 99.8333,93.5 100.5,95.5C 99.0256,94.5637 98.0256,93.2303 97.5,91.5C 96.8902,90.609 96.5569,89.609 96.5,88.5 Z"/></g>
<g><path style="opacity:1" fill="#f4cb5a" d="M 101.5,86.5 C 103.5,89.1667 105.5,91.8333 107.5,94.5C 107.5,95.1667 107.5,95.8333 107.5,96.5C 105.738,97.2623 104.738,98.5956 104.5,100.5C 103.407,98.6508 102.074,96.9842 100.5,95.5C 99.8333,93.5 99.1667,91.5 98.5,89.5C 99.8333,88.8333 100.833,87.8333 101.5,86.5 Z"/></g>
<g><path style="opacity:1" fill="#d7d6c3" d="M 39.5,89.5 C 39.5,90.8333 39.5,92.1667 39.5,93.5C 37.5853,93.7845 35.9187,93.4511 34.5,92.5C 35.9649,91.2632 37.6316,90.2632 39.5,89.5 Z"/></g>
<g><path style="opacity:1" fill="#efb615" d="M 53.5,83.5 C 57.0882,89.6754 60.4215,96.0087 63.5,102.5C 59.4612,100.481 55.4612,98.4806 51.5,96.5C 52.1667,92.1667 52.8333,87.8333 53.5,83.5 Z"/></g>
<g><path style="opacity:1" fill="#efb214" d="M 55.5,75.5 C 58.1941,78.8763 60.5274,82.543 62.5,86.5C 64.2018,91.5149 65.5351,96.6816 66.5,102C 66.4301,102.765 66.0967,103.265 65.5,103.5C 62.4767,96.0983 58.4767,89.4316 53.5,83.5C 53.5651,80.5718 54.2318,77.9052 55.5,75.5 Z"/></g>
<g><path style="opacity:1" fill="#f5cd5b" d="M 97.5,91.5 C 98.0256,93.2303 99.0256,94.5637 100.5,95.5C 101.167,97.5 101.833,99.5 102.5,101.5C 101.5,103.167 100.167,104.5 98.5,105.5C 96.5797,102.661 94.9131,99.6612 93.5,96.5C 93.5,96.1667 93.5,95.8333 93.5,95.5C 94.4725,93.8608 95.8058,92.5274 97.5,91.5 Z"/></g>
<g><path style="opacity:1" fill="#3eb415" d="M 21.5,94.5 C 21.5,100.167 21.5,105.833 21.5,111.5C 18.0843,142.806 27.4176,169.806 49.5,192.5C 17.629,176.767 4.12901,151.101 9,115.5C 11.11,107.952 14.2767,100.952 18.5,94.5C 19.6522,93.375 20.6522,93.375 21.5,94.5 Z"/></g>
<g><path style="opacity:1" fill="#f3e5ca" d="M 122.5,73.5 C 116.563,74.4337 114.896,77.767 117.5,83.5C 118.167,87.8333 118.833,92.1667 119.5,96.5C 121.025,105.599 123.025,114.599 125.5,123.5C 124.25,123.423 123.417,122.756 123,121.5C 121.689,113.781 120.189,106.114 118.5,98.5C 117.962,94.4764 117.295,90.4764 116.5,86.5C 115.348,82.919 114.848,79.2523 115,75.5C 117.183,72.8299 119.683,72.1632 122.5,73.5 Z"/></g>
<g><path style="opacity:1" fill="#f3bd18" d="M 168.5,84.5 C 169.601,85.8484 170.601,87.3484 171.5,89C 175.808,90.3267 180.141,91.4934 184.5,92.5C 185.93,92.4208 187.264,92.7542 188.5,93.5C 189.921,97.0275 190.588,100.694 190.5,104.5C 190.5,106.5 190.5,108.5 190.5,110.5C 188.435,110.483 186.435,110.15 184.5,109.5C 182.841,104.173 180.174,99.5067 176.5,95.5C 176.389,94.8826 176.056,94.3826 175.5,94C 171.527,92.9722 167.527,92.1389 163.5,91.5C 165.555,89.4451 167.221,87.1117 168.5,84.5 Z"/></g>
<g><path style="opacity:1" fill="#af7007" d="M 162.5,92.5 C 162.5,91.8333 162.833,91.5 163.5,91.5C 167.527,92.1389 171.527,92.9722 175.5,94C 176.056,94.3826 176.389,94.8826 176.5,95.5C 171.761,94.8152 167.095,93.8152 162.5,92.5 Z"/></g>
<g><path style="opacity:1" fill="#c7fd69" d="M 93.5,138.5 C 84.478,138.327 76.1447,135.827 68.5,131C 55.6032,119.263 42.6032,107.763 29.5,96.5C 40.4397,95.5157 50.7731,98.0157 60.5,104C 74.0905,113.089 85.0905,124.589 93.5,138.5 Z"/></g>
<g><path style="opacity:1" fill="#d4870e" d="M 111.5,91.5 C 112.525,94.9736 113.192,98.6403 113.5,102.5C 113.672,103.492 113.338,104.158 112.5,104.5C 112.649,103.448 112.483,102.448 112,101.5C 110.024,100.178 108.524,98.5116 107.5,96.5C 107.5,95.8333 107.5,95.1667 107.5,94.5C 109.43,94.2294 110.764,93.2294 111.5,91.5 Z"/></g>
<g><path style="opacity:1" fill="#a86806" d="M 159.5,96.5 C 159.5,96.1667 159.5,95.8333 159.5,95.5C 159.833,95.5 160.167,95.5 160.5,95.5C 168.586,95.0685 173.586,98.7351 175.5,106.5C 173.973,106.573 172.973,105.906 172.5,104.5C 171.076,99.008 167.743,97.008 162.5,98.5C 161.5,97.8333 160.5,97.1667 159.5,96.5 Z"/></g>
<g><path style="opacity:1" fill="#a46304" d="M 53.5,83.5 C 58.4767,89.4316 62.4767,96.0983 65.5,103.5C 64.5084,103.672 63.8417,103.338 63.5,102.5C 60.4215,96.0087 57.0882,89.6754 53.5,83.5 Z"/></g>
<g><path style="opacity:1" fill="#f2ba19" d="M 107.5,96.5 C 108.524,98.5116 110.024,100.178 112,101.5C 112.483,102.448 112.649,103.448 112.5,104.5C 112.5,104.833 112.5,105.167 112.5,105.5C 111.167,106.5 109.833,107.5 108.5,108.5C 107.649,106.118 106.316,104.118 104.5,102.5C 104.5,101.833 104.5,101.167 104.5,100.5C 104.738,98.5956 105.738,97.2623 107.5,96.5 Z"/></g>
<g><path style="opacity:1" fill="#662f12" d="M 159.5,96.5 C 160.5,97.1667 161.5,97.8333 162.5,98.5C 165.589,100.925 168.922,102.925 172.5,104.5C 172.973,105.906 173.973,106.573 175.5,106.5C 178.29,107.967 179.956,110.3 180.5,113.5C 180.5,114.167 180.5,114.833 180.5,115.5C 180.5,116.5 180.5,117.5 180.5,118.5C 180.5,118.833 180.5,119.167 180.5,119.5C 177.86,122.806 174.86,125.806 171.5,128.5C 170.167,129.167 169.167,130.167 168.5,131.5C 166.091,132.701 164.091,134.367 162.5,136.5C 161.5,136.833 160.833,137.5 160.5,138.5C 159.5,138.833 158.833,139.5 158.5,140.5C 156.596,140.738 155.262,141.738 154.5,143.5C 151.216,145.117 148.549,147.45 146.5,150.5C 145.5,150.833 144.833,151.5 144.5,152.5C 142.596,152.738 141.262,153.738 140.5,155.5C 139.5,155.833 138.833,156.5 138.5,157.5C 137.833,157.5 137.5,157.833 137.5,158.5C 135.254,159.455 132.921,160.122 130.5,160.5C 128.562,158.837 126.228,158.171 123.5,158.5C 122.22,157.069 120.553,156.402 118.5,156.5C 115.55,155.692 112.883,154.358 110.5,152.5C 111.026,150.77 112.026,149.436 113.5,148.5C 119.314,149.827 124.981,151.66 130.5,154C 132.167,154.667 133.833,154.667 135.5,154C 149,142.5 162.5,131 176,119.5C 177.373,117.305 177.706,114.971 177,112.5C 170.319,107.97 163.819,103.304 157.5,98.5C 157.833,97.5 158.5,96.8333 159.5,96.5 Z"/></g>
<g><path style="opacity:1" fill="#a2f01f" d="M 29.5,96.5 C 42.6032,107.763 55.6032,119.263 68.5,131C 76.1447,135.827 84.478,138.327 93.5,138.5C 98.8507,146.183 105.517,152.516 113.5,157.5C 82.8435,166.612 56.5101,159.612 34.5,136.5C 29.46,123.458 27.7933,110.125 29.5,96.5 Z"/></g>
<g><path style="opacity:1" fill="#b98741" d="M 100.5,95.5 C 102.074,96.9842 103.407,98.6508 104.5,100.5C 104.5,101.167 104.5,101.833 104.5,102.5C 103.833,102.167 103.167,101.833 102.5,101.5C 101.833,99.5 101.167,97.5 100.5,95.5 Z"/></g>
<g><path style="opacity:1" fill="#ebb618" d="M 162.5,98.5 C 167.743,97.008 171.076,99.008 172.5,104.5C 168.922,102.925 165.589,100.925 162.5,98.5 Z"/></g>
<g><path style="opacity:1" fill="#c0cca2" d="M 24.5,96.5 C 25.1667,96.5 25.8333,96.5 26.5,96.5C 26.5,98.8333 26.5,101.167 26.5,103.5C 25.8333,103.833 25.1667,104.167 24.5,104.5C 23.1667,101.833 23.1667,99.1667 24.5,96.5 Z"/></g>
<g><path style="opacity:1" fill="#be8e4a" d="M 92.5,96.5 C 92.8333,96.5 93.1667,96.5 93.5,96.5C 94.9131,99.6612 96.5797,102.661 98.5,105.5C 99.1098,106.391 99.4431,107.391 99.5,108.5C 98.8333,108.167 98.1667,107.833 97.5,107.5C 95.8627,104.183 94.1961,100.85 92.5,97.5C 92.5,97.1667 92.5,96.8333 92.5,96.5 Z"/></g>
<g><path style="opacity:1" fill="#936b57" d="M 118.5,98.5 C 120.189,106.114 121.689,113.781 123,121.5C 123.417,122.756 124.25,123.423 125.5,123.5C 127.725,124.751 129.891,124.418 132,122.5C 132.638,117.075 132.138,111.741 130.5,106.5C 130.529,104.971 131.196,103.804 132.5,103C 139.173,100.033 144.839,101.2 149.5,106.5C 148.488,107.872 147.488,109.205 146.5,110.5C 144.577,110.205 142.91,109.372 141.5,108C 139.19,107.503 136.857,107.337 134.5,107.5C 134.205,109.735 134.539,111.735 135.5,113.5C 135.171,116.228 135.837,118.562 137.5,120.5C 137.833,121.833 138.167,123.167 138.5,124.5C 137.21,123.942 136.377,122.942 136,121.5C 134.833,123.333 133.667,125.167 132.5,127C 133.582,128.33 134.249,129.83 134.5,131.5C 133.272,130.694 132.272,129.694 131.5,128.5C 126.816,130.397 122.65,129.73 119,126.5C 116.794,118.638 115.294,110.638 114.5,102.5C 115.833,101.167 117.167,99.8333 118.5,98.5 Z"/></g>
<g><path style="opacity:1" fill="#f2be19" d="M 162.5,92.5 C 167.095,93.8152 171.761,94.8152 176.5,95.5C 178.664,100.5 181.331,105.167 184.5,109.5C 186.583,110.901 188.583,112.568 190.5,114.5C 189.667,114.833 188.833,115.167 188,115.5C 185.456,114.929 182.956,114.262 180.5,113.5C 179.956,110.3 178.29,107.967 175.5,106.5C 173.586,98.7351 168.586,95.0685 160.5,95.5C 160.427,93.9731 161.094,92.9731 162.5,92.5 Z"/></g>
<g><path style="opacity:1" fill="#f2bd19" d="M 102.5,101.5 C 103.167,101.833 103.833,102.167 104.5,102.5C 105.227,104.954 106.227,107.287 107.5,109.5C 106.92,111.749 105.587,113.415 103.5,114.5C 102.649,112.118 101.316,110.118 99.5,108.5C 99.4431,107.391 99.1098,106.391 98.5,105.5C 100.167,104.5 101.5,103.167 102.5,101.5 Z"/></g>
<g><path style="opacity:1" fill="#9b7356" d="M 87.5,102.5 C 89.588,104.336 90.9213,106.669 91.5,109.5C 90.2101,108.942 89.3768,107.942 89,106.5C 88.8333,107 88.6667,107.5 88.5,108C 89.3479,110.77 89.6813,113.603 89.5,116.5C 89.1667,117.5 88.5,118.167 87.5,118.5C 86.1045,114.409 85.4379,110.076 85.5,105.5C 85.9321,104.29 86.5987,103.29 87.5,102.5 Z"/></g>
<g><path style="opacity:1" fill="#5d3510" d="M 26.5,103.5 C 26.3032,109.545 26.6365,115.545 27.5,121.5C 26.8333,121.833 26.1667,122.167 25.5,122.5C 24.6365,116.545 24.3032,110.545 24.5,104.5C 25.1667,104.167 25.8333,103.833 26.5,103.5 Z"/></g>
<g><path style="opacity:1" fill="#f6cf5b" d="M 92.5,97.5 C 94.1961,100.85 95.8627,104.183 97.5,107.5C 96.5275,109.139 95.1942,110.473 93.5,111.5C 93.1667,110.5 92.5,109.833 91.5,109.5C 90.9213,106.669 89.588,104.336 87.5,102.5C 87.5,102.167 87.5,101.833 87.5,101.5C 89.1667,100.167 90.8333,98.8333 92.5,97.5 Z"/></g>
<g><path style="opacity:1" fill="#a46305" d="M 104.5,102.5 C 106.316,104.118 107.649,106.118 108.5,108.5C 108.5,108.833 108.5,109.167 108.5,109.5C 108.167,109.5 107.833,109.5 107.5,109.5C 106.227,107.287 105.227,104.954 104.5,102.5 Z"/></g>
<g><path style="opacity:1" fill="#a66605" d="M 176.5,95.5 C 180.174,99.5067 182.841,104.173 184.5,109.5C 181.331,105.167 178.664,100.5 176.5,95.5 Z"/></g>
<g><path style="opacity:1" fill="#f1c956" d="M 84.5,105.5 C 84.8333,105.5 85.1667,105.5 85.5,105.5C 85.4379,110.076 86.1045,114.409 87.5,118.5C 87.5751,121.206 87.9084,123.873 88.5,126.5C 84.4874,122.485 80.8207,118.152 77.5,113.5C 79.8235,110.874 82.1568,108.207 84.5,105.5 Z"/></g>
<g><path style="opacity:1" fill="#e8b455" d="M 146.5,110.5 C 146.5,110.833 146.5,111.167 146.5,111.5C 145.5,111.833 144.833,112.5 144.5,113.5C 143.5,113.833 142.833,114.5 142.5,115.5C 141.728,114.306 140.728,113.306 139.5,112.5C 138.518,111.859 137.518,111.193 136.5,110.5C 135.614,111.325 135.281,112.325 135.5,113.5C 134.539,111.735 134.205,109.735 134.5,107.5C 136.857,107.337 139.19,107.503 141.5,108C 142.91,109.372 144.577,110.205 146.5,110.5 Z"/></g>
<g><path style="opacity:1" fill="#693416" d="M 149.5,106.5 C 150.167,106.5 150.833,106.5 151.5,106.5C 154.446,109.313 157.779,111.646 161.5,113.5C 162.473,115.068 162.64,116.735 162,118.5C 152.564,127.115 142.73,135.115 132.5,142.5C 128.669,142.584 125.002,141.917 121.5,140.5C 121.5,140.167 121.5,139.833 121.5,139.5C 121.833,138.5 122.5,137.833 123.5,137.5C 123.833,137.5 124.167,137.5 124.5,137.5C 127.012,138.928 129.678,139.428 132.5,139C 135.66,137.177 136.326,134.677 134.5,131.5C 137.127,135.398 139.46,135.064 141.5,130.5C 142.492,130.672 143.158,130.338 143.5,129.5C 144.833,128.833 145.833,127.833 146.5,126.5C 147.492,126.672 148.158,126.338 148.5,125.5C 149.833,124.833 150.833,123.833 151.5,122.5C 153.148,121.19 154.814,119.857 156.5,118.5C 153.525,115.677 150.192,113.344 146.5,111.5C 146.5,111.167 146.5,110.833 146.5,110.5C 147.488,109.205 148.488,107.872 149.5,106.5 Z"/></g>
<g><path style="opacity:1" fill="#ecc65a" d="M 91.5,109.5 C 91.8333,110.833 92.1667,112.167 92.5,113.5C 91.0937,113.973 90.427,114.973 90.5,116.5C 90.1667,116.5 89.8333,116.5 89.5,116.5C 89.6813,113.603 89.3479,110.77 88.5,108C 88.6667,107.5 88.8333,107 89,106.5C 89.3768,107.942 90.2101,108.942 91.5,109.5 Z"/></g>
<g><path style="opacity:1" fill="#f3c11b" d="M 97.5,107.5 C 98.1667,107.833 98.8333,108.167 99.5,108.5C 100.227,110.954 101.227,113.287 102.5,115.5C 101.246,118.093 99.5798,120.427 97.5,122.5C 95.5,121.5 93.5,120.5 91.5,119.5C 90.596,118.791 90.2627,117.791 90.5,116.5C 90.427,114.973 91.0937,113.973 92.5,113.5C 93.404,114.209 93.7373,115.209 93.5,116.5C 94.675,116.719 95.675,116.386 96.5,115.5C 95.0905,114.431 94.0905,113.097 93.5,111.5C 95.1942,110.473 96.5275,109.139 97.5,107.5 Z"/></g>
<g><path style="opacity:1" fill="#f5cf5a" d="M 112.5,105.5 C 113.656,109.445 114.156,113.445 114,117.5C 113.617,116.944 113.117,116.611 112.5,116.5C 111.921,113.669 110.588,111.336 108.5,109.5C 108.5,109.167 108.5,108.833 108.5,108.5C 109.833,107.5 111.167,106.5 112.5,105.5 Z"/></g>
<g><path style="opacity:1" fill="#f1b417" d="M 190.5,59.5 C 190.833,59.5 191.167,59.5 191.5,59.5C 193.158,63.466 194.825,67.466 196.5,71.5C 197.352,77.1355 198.019,82.8022 198.5,88.5C 198.73,92.296 198.064,95.1294 196.5,97C 197.167,99.3333 197.833,101.667 198.5,104C 196.734,122.223 190.901,139.056 181,154.5C 179.855,155.636 178.688,156.636 177.5,157.5C 174.697,158.928 171.697,159.595 168.5,159.5C 168.5,159.167 168.5,158.833 168.5,158.5C 169.906,158.027 170.573,157.027 170.5,155.5C 171.492,155.672 172.158,155.338 172.5,154.5C 173.906,154.027 174.573,153.027 174.5,151.5C 175.167,151.5 175.5,151.167 175.5,150.5C 177.745,149.708 178.078,148.375 176.5,146.5C 177.925,148.031 178.591,147.698 178.5,145.5C 180.776,143.669 182.609,141.336 184,138.5C 185.838,133.65 187.672,128.817 189.5,124C 188.944,123.617 188.611,123.117 188.5,122.5C 189.043,122.44 189.376,122.107 189.5,121.5C 186.556,120.296 183.556,119.296 180.5,118.5C 180.5,117.5 180.5,116.5 180.5,115.5C 184.167,116.167 187.833,116.833 191.5,117.5C 191.5,114.5 191.5,111.5 191.5,108.5C 192.165,105.686 192.498,102.686 192.5,99.5C 192.646,94.576 191.979,89.9093 190.5,85.5C 190.05,79.1522 188.384,73.1522 185.5,67.5C 187.14,64.8508 188.807,62.1841 190.5,59.5 Z"/></g>
<g><path style="opacity:1" fill="#aa6905" d="M 193.5,81.5 C 194.302,80.1153 194.969,80.282 195.5,82C 196.33,83.4651 196.496,84.9651 196,86.5C 195.015,84.8251 194.181,83.1585 193.5,81.5 Z"/></g>
<g><path style="opacity:1" fill="#a66505" d="M 189.5,67.5 C 191.404,69.0441 192.238,71.0441 192,73.5C 190.337,71.8421 189.504,69.8421 189.5,67.5 Z"/></g>
<g><path style="opacity:1" fill="#44c517" d="M 21.5,111.5 C 23.3292,141.871 37.9959,163.204 65.5,175.5C 66.1067,175.376 66.44,175.043 66.5,174.5C 72.5517,178.188 79.2184,180.354 86.5,181C 95.8274,181.5 105.161,181.666 114.5,181.5C 135.225,180.936 155.225,176.936 174.5,169.5C 175.48,166.914 175.813,164.247 175.5,161.5C 184.523,158.829 193.523,156.329 202.5,154C 177.09,175.875 148.09,191.208 115.5,200C 92.5309,205.316 70.5309,202.816 49.5,192.5C 27.4176,169.806 18.0843,142.806 21.5,111.5 Z"/></g>
<g><path style="opacity:1" fill="#a46405" d="M 99.5,108.5 C 101.316,110.118 102.649,112.118 103.5,114.5C 103.5,114.833 103.5,115.167 103.5,115.5C 103.167,115.5 102.833,115.5 102.5,115.5C 101.227,113.287 100.227,110.954 99.5,108.5 Z"/></g>
<g><path style="opacity:1" fill="#bf9250" d="M 108.5,109.5 C 110.588,111.336 111.921,113.669 112.5,116.5C 110.412,114.664 109.079,112.331 108.5,109.5 Z"/></g>
<g><path style="opacity:1" fill="#d88b0c" d="M 146.5,111.5 C 150.192,113.344 153.525,115.677 156.5,118.5C 154.814,119.857 153.148,121.19 151.5,122.5C 150.831,118.144 148.498,115.144 144.5,113.5C 144.833,112.5 145.5,111.833 146.5,111.5 Z"/></g>
<g><path style="opacity:1" fill="#e89711" d="M 156.5,98.5 C 156.833,98.5 157.167,98.5 157.5,98.5C 163.819,103.304 170.319,107.97 177,112.5C 177.706,114.971 177.373,117.305 176,119.5C 162.5,131 149,142.5 135.5,154C 133.833,154.667 132.167,154.667 130.5,154C 124.981,151.66 119.314,149.827 113.5,148.5C 113.5,148.167 113.5,147.833 113.5,147.5C 115.968,144.842 118.635,142.509 121.5,140.5C 125.002,141.917 128.669,142.584 132.5,142.5C 133.251,143.573 134.251,143.74 135.5,143C 144.5,135.333 153.5,127.667 162.5,120C 165.402,117.136 165.068,114.969 161.5,113.5C 157.779,111.646 154.446,109.313 151.5,106.5C 152.655,103.525 154.322,100.858 156.5,98.5 Z"/></g>
<g><path style="opacity:1" fill="#b2771e" d="M 91.5,109.5 C 92.5,109.833 93.1667,110.5 93.5,111.5C 94.0905,113.097 95.0905,114.431 96.5,115.5C 95.675,116.386 94.675,116.719 93.5,116.5C 93.7373,115.209 93.404,114.209 92.5,113.5C 92.1667,112.167 91.8333,110.833 91.5,109.5 Z"/></g>
<g><path style="opacity:1" fill="#f7d45d" d="M 139.5,112.5 C 139.833,113.833 140.167,115.167 140.5,116.5C 139.974,118.23 138.974,119.564 137.5,120.5C 135.837,118.562 135.171,116.228 135.5,113.5C 135.281,112.325 135.614,111.325 136.5,110.5C 137.518,111.193 138.518,111.859 139.5,112.5 Z"/></g>
<g><path style="opacity:1" fill="#a3650b" d="M 190.5,104.5 C 191.434,105.568 191.768,106.901 191.5,108.5C 191.5,111.5 191.5,114.5 191.5,117.5C 187.833,116.833 184.167,116.167 180.5,115.5C 180.5,114.833 180.5,114.167 180.5,113.5C 182.956,114.262 185.456,114.929 188,115.5C 188.833,115.167 189.667,114.833 190.5,114.5C 188.583,112.568 186.583,110.901 184.5,109.5C 186.435,110.15 188.435,110.483 190.5,110.5C 190.5,108.5 190.5,106.5 190.5,104.5 Z"/></g>
<g><path style="opacity:1" fill="#f2c31b" d="M 144.5,113.5 C 148.498,115.144 150.831,118.144 151.5,122.5C 150.833,123.833 149.833,124.833 148.5,125.5C 146,122.506 144,119.173 142.5,115.5C 142.833,114.5 143.5,113.833 144.5,113.5 Z"/></g>
<g><path style="opacity:1" fill="#f4c51c" d="M 140.5,116.5 C 142.988,119.466 144.988,122.799 146.5,126.5C 145.833,127.833 144.833,128.833 143.5,129.5C 141.621,128.103 139.954,126.437 138.5,124.5C 138.167,123.167 137.833,121.833 137.5,120.5C 138.974,119.564 139.974,118.23 140.5,116.5 Z"/></g>
<g><path style="opacity:1" fill="#a96d19" d="M 139.5,112.5 C 140.728,113.306 141.728,114.306 142.5,115.5C 144,119.173 146,122.506 148.5,125.5C 148.158,126.338 147.492,126.672 146.5,126.5C 144.988,122.799 142.988,119.466 140.5,116.5C 140.167,115.167 139.833,113.833 139.5,112.5 Z"/></g>
<g><path style="opacity:1" fill="#683113" d="M 89.5,116.5 C 89.8333,116.5 90.1667,116.5 90.5,116.5C 90.2627,117.791 90.596,118.791 91.5,119.5C 90.375,120.652 90.375,121.652 91.5,122.5C 91.2291,124.38 91.8958,125.713 93.5,126.5C 93.1667,127.5 92.5,128.167 91.5,128.5C 90.8333,128.5 90.1667,128.5 89.5,128.5C 89.1667,127.833 88.8333,127.167 88.5,126.5C 87.9084,123.873 87.5751,121.206 87.5,118.5C 88.5,118.167 89.1667,117.5 89.5,116.5 Z"/></g>
<g><path style="opacity:1" fill="#f7d55d" d="M 107.5,109.5 C 107.833,109.5 108.167,109.5 108.5,109.5C 109.079,112.331 110.412,114.664 112.5,116.5C 114.271,120.379 115.771,124.379 117,128.5C 119.239,131.962 122.406,133.295 126.5,132.5C 125.559,134.05 124.893,135.716 124.5,137.5C 124.167,137.5 123.833,137.5 123.5,137.5C 123.158,136.662 122.492,136.328 121.5,136.5C 113.864,131.344 105.864,126.677 97.5,122.5C 99.5798,120.427 101.246,118.093 102.5,115.5C 102.833,115.5 103.167,115.5 103.5,115.5C 103.5,115.167 103.5,114.833 103.5,114.5C 105.587,113.415 106.92,111.749 107.5,109.5 Z"/></g>
<g><path style="opacity:1" fill="#bd8f4f" d="M 103.5,115.5 C 105.223,117.253 106.723,119.253 108,121.5C 108.688,122.332 108.521,122.998 107.5,123.5C 105.628,121.09 104.295,118.423 103.5,115.5 Z"/></g>
<g><path style="opacity:1" fill="#a26204" d="M 180.5,118.5 C 183.556,119.296 186.556,120.296 189.5,121.5C 189.376,122.107 189.043,122.44 188.5,122.5C 185.646,121.795 182.979,120.795 180.5,119.5C 180.5,119.167 180.5,118.833 180.5,118.5 Z"/></g>
<g><path style="opacity:1" fill="#e5b307" d="M 27.5,121.5 C 28.5247,126.267 29.858,130.934 31.5,135.5C 30.8333,135.5 30.1667,135.5 29.5,135.5C 27.7209,131.405 26.3876,127.072 25.5,122.5C 26.1667,122.167 26.8333,121.833 27.5,121.5 Z"/></g>
<g><path style="opacity:1" fill="#e6ad53" d="M 113.5,102.5 C 113.833,102.5 114.167,102.5 114.5,102.5C 115.294,110.638 116.794,118.638 119,126.5C 122.65,129.73 126.816,130.397 131.5,128.5C 130.055,130.063 128.389,131.396 126.5,132.5C 122.406,133.295 119.239,131.962 117,128.5C 115.771,124.379 114.271,120.379 112.5,116.5C 113.117,116.611 113.617,116.944 114,117.5C 114.156,113.445 113.656,109.445 112.5,105.5C 112.5,105.167 112.5,104.833 112.5,104.5C 113.338,104.158 113.672,103.492 113.5,102.5 Z"/></g>
<g><path style="opacity:1" fill="#f2c51e" d="M 138.5,124.5 C 138.992,126.819 139.992,128.819 141.5,130.5C 139.46,135.064 137.127,135.398 134.5,131.5C 134.249,129.83 133.582,128.33 132.5,127C 133.667,125.167 134.833,123.333 136,121.5C 136.377,122.942 137.21,123.942 138.5,124.5 Z"/></g>
<g><path style="opacity:1" fill="#f2cd53" d="M 108.5,131.5 C 103.433,130.033 98.4331,128.367 93.5,126.5C 91.8958,125.713 91.2291,124.38 91.5,122.5C 91.56,121.957 91.8933,121.624 92.5,121.5C 97.6748,124.588 103.008,127.421 108.5,130C 109.738,130.69 109.738,131.19 108.5,131.5 Z"/></g>
<g><path style="opacity:1" fill="#bf9148" d="M 91.5,119.5 C 93.5,120.5 95.5,121.5 97.5,122.5C 105.864,126.677 113.864,131.344 121.5,136.5C 116.989,135.069 112.655,133.402 108.5,131.5C 109.738,131.19 109.738,130.69 108.5,130C 103.008,127.421 97.6748,124.588 92.5,121.5C 91.8933,121.624 91.56,121.957 91.5,122.5C 90.375,121.652 90.375,120.652 91.5,119.5 Z"/></g>
<g><path style="opacity:1" fill="#97715c" d="M 93.5,126.5 C 98.4331,128.367 103.433,130.033 108.5,131.5C 112.655,133.402 116.989,135.069 121.5,136.5C 122.492,136.328 123.158,136.662 123.5,137.5C 122.5,137.833 121.833,138.5 121.5,139.5C 110.979,136.891 100.979,133.224 91.5,128.5C 92.5,128.167 93.1667,127.5 93.5,126.5 Z"/></g>
<g><path style="opacity:1" fill="#a96c08" d="M 138.5,124.5 C 139.954,126.437 141.621,128.103 143.5,129.5C 143.158,130.338 142.492,130.672 141.5,130.5C 139.992,128.819 138.992,126.819 138.5,124.5 Z"/></g>
<g><path style="opacity:1" fill="#f6cc1d" d="M 180.5,119.5 C 182.979,120.795 185.646,121.795 188.5,122.5C 188.611,123.117 188.944,123.617 189.5,124C 187.672,128.817 185.838,133.65 184,138.5C 182.609,141.336 180.776,143.669 178.5,145.5C 177.407,143.651 176.074,141.984 174.5,140.5C 175.167,142.5 175.833,144.5 176.5,146.5C 178.078,148.375 177.745,149.708 175.5,150.5C 170.37,143.942 169.036,136.608 171.5,128.5C 174.86,125.806 177.86,122.806 180.5,119.5 Z"/></g>
<g><path style="opacity:1" fill="#f5ca1e" d="M 131.5,128.5 C 132.272,129.694 133.272,130.694 134.5,131.5C 136.326,134.677 135.66,137.177 132.5,139C 129.678,139.428 127.012,138.928 124.5,137.5C 124.893,135.716 125.559,134.05 126.5,132.5C 128.389,131.396 130.055,130.063 131.5,128.5 Z"/></g>
<g><path style="opacity:1" fill="#f7e7d0" d="M 161.5,113.5 C 165.068,114.969 165.402,117.136 162.5,120C 153.5,127.667 144.5,135.333 135.5,143C 134.251,143.74 133.251,143.573 132.5,142.5C 142.73,135.115 152.564,127.115 162,118.5C 162.64,116.735 162.473,115.068 161.5,113.5 Z"/></g>
<g><path style="opacity:1" fill="#ecf0e2" d="M 29.5,135.5 C 30.1667,135.5 30.8333,135.5 31.5,135.5C 32.4408,137.05 33.1075,138.716 33.5,140.5C 32.8333,140.5 32.1667,140.5 31.5,140.5C 30.5592,138.95 29.8925,137.284 29.5,135.5 Z"/></g>
<g><path style="opacity:1" fill="#9a5903" d="M 174.5,140.5 C 173.194,137.313 173.194,133.98 174.5,130.5C 174.823,133.705 174.823,137.038 174.5,140.5 Z"/></g>
<g><path style="opacity:1" fill="#f0bd57" d="M 89.5,128.5 C 90.1667,128.5 90.8333,128.5 91.5,128.5C 100.979,133.224 110.979,136.891 121.5,139.5C 121.5,139.833 121.5,140.167 121.5,140.5C 118.635,142.509 115.968,144.842 113.5,147.5C 109.426,146.364 105.426,145.031 101.5,143.5C 96.79,139.087 92.79,134.087 89.5,128.5 Z"/></g>
<g><path style="opacity:1" fill="#f3c71c" d="M 168.5,131.5 C 168.33,138.832 170.33,145.499 174.5,151.5C 174.573,153.027 173.906,154.027 172.5,154.5C 171.396,152.611 170.063,150.945 168.5,149.5C 167.921,146.669 166.588,144.336 164.5,142.5C 163.833,140.5 163.167,138.5 162.5,136.5C 164.091,134.367 166.091,132.701 168.5,131.5 Z"/></g>
<g><path style="opacity:1" fill="#955302" d="M 165.5,135.5 C 167.332,136.14 167.665,137.14 166.5,138.5C 165.614,137.675 165.281,136.675 165.5,135.5 Z"/></g>
<g><path style="opacity:1" fill="#ae6d07" d="M 162.5,136.5 C 163.167,138.5 163.833,140.5 164.5,142.5C 163.167,141.167 161.833,139.833 160.5,138.5C 160.833,137.5 161.5,136.833 162.5,136.5 Z"/></g>
<g><path style="opacity:1" fill="#f7cf20" d="M 160.5,138.5 C 161.833,139.833 163.167,141.167 164.5,142.5C 165.079,145.331 166.412,147.664 168.5,149.5C 169.167,151.5 169.833,153.5 170.5,155.5C 170.573,157.027 169.906,158.027 168.5,158.5C 167.504,158.586 166.671,158.252 166,157.5C 163.167,152.5 160.333,147.5 157.5,142.5C 157.863,141.817 158.196,141.15 158.5,140.5C 158.833,139.5 159.5,138.833 160.5,138.5 Z"/></g>
<g><path style="opacity:1" fill="#a26405" d="M 174.5,140.5 C 176.074,141.984 177.407,143.651 178.5,145.5C 178.591,147.698 177.925,148.031 176.5,146.5C 175.833,144.5 175.167,142.5 174.5,140.5 Z"/></g>
<g><path style="opacity:1" fill="#e6b10a" d="M 31.5,140.5 C 32.1667,140.5 32.8333,140.5 33.5,140.5C 34.4408,142.05 35.1075,143.716 35.5,145.5C 35.1667,145.5 34.8333,145.5 34.5,145.5C 33.1103,144.101 32.1103,142.434 31.5,140.5 Z"/></g>
<g><path style="opacity:1" fill="#f6cc1d" d="M 154.5,143.5 C 155.496,143.414 156.329,143.748 157,144.5C 160.113,149.729 162.947,155.062 165.5,160.5C 163.5,160.5 161.5,160.5 159.5,160.5C 157.517,155.867 155.017,151.534 152,147.5C 153.792,152.191 155.959,156.858 158.5,161.5C 156.5,161.5 154.5,161.5 152.5,161.5C 150.246,157.993 148.246,154.327 146.5,150.5C 148.549,147.45 151.216,145.117 154.5,143.5 Z"/></g>
<g><path style="opacity:1" fill="#916b56" d="M 101.5,143.5 C 105.426,145.031 109.426,146.364 113.5,147.5C 113.5,147.833 113.5,148.167 113.5,148.5C 112.026,149.436 111.026,150.77 110.5,152.5C 107.167,149.833 104.167,146.833 101.5,143.5 Z"/></g>
<g><path style="opacity:1" fill="#a66906" d="M 164.5,142.5 C 166.588,144.336 167.921,146.669 168.5,149.5C 166.412,147.664 165.079,145.331 164.5,142.5 Z"/></g>
<g><path style="opacity:1" fill="#a56705" d="M 171.5,128.5 C 169.036,136.608 170.37,143.942 175.5,150.5C 175.5,151.167 175.167,151.5 174.5,151.5C 170.33,145.499 168.33,138.832 168.5,131.5C 169.167,130.167 170.167,129.167 171.5,128.5 Z"/></g>
<g><path style="opacity:1" fill="#5e3914" d="M 34.5,145.5 C 34.8333,145.5 35.1667,145.5 35.5,145.5C 38.3841,148.852 40.5508,152.518 42,156.5C 38.8623,153.208 36.3623,149.542 34.5,145.5 Z"/></g>
<g><path style="opacity:1" fill="#a76a06" d="M 159.5,160.5 C 159.5,161.167 159.167,161.5 158.5,161.5C 155.959,156.858 153.792,152.191 152,147.5C 155.017,151.534 157.517,155.867 159.5,160.5 Z"/></g>
<g><path style="opacity:1" fill="#b07619" d="M 158.5,140.5 C 158.196,141.15 157.863,141.817 157.5,142.5C 160.333,147.5 163.167,152.5 166,157.5C 166.671,158.252 167.504,158.586 168.5,158.5C 168.5,158.833 168.5,159.167 168.5,159.5C 167.609,160.11 166.609,160.443 165.5,160.5C 162.947,155.062 160.113,149.729 157,144.5C 156.329,143.748 155.496,143.414 154.5,143.5C 155.262,141.738 156.596,140.738 158.5,140.5 Z"/></g>
<g><path style="opacity:1" fill="#a46605" d="M 168.5,149.5 C 170.063,150.945 171.396,152.611 172.5,154.5C 172.158,155.338 171.492,155.672 170.5,155.5C 169.833,153.5 169.167,151.5 168.5,149.5 Z"/></g>
<g><path style="opacity:1" fill="#e7c41a" d="M 144.5,152.5 C 147.075,155.319 149.408,158.319 151.5,161.5C 146.5,162.833 141.5,162.833 136.5,161.5C 138.167,161.5 139.833,161.5 141.5,161.5C 142.043,161.44 142.376,161.107 142.5,160.5C 141.544,158.925 140.877,157.258 140.5,155.5C 141.262,153.738 142.596,152.738 144.5,152.5 Z"/></g>
<g><path style="opacity:1" fill="#ac6f07" d="M 146.5,150.5 C 148.246,154.327 150.246,157.993 152.5,161.5C 152.167,161.5 151.833,161.5 151.5,161.5C 149.408,158.319 147.075,155.319 144.5,152.5C 144.833,151.5 145.5,150.833 146.5,150.5 Z"/></g>
<g><path style="opacity:1" fill="#c17f0b" d="M 118.5,156.5 C 120.553,156.402 122.22,157.069 123.5,158.5C 121.447,158.598 119.78,157.931 118.5,156.5 Z"/></g>
<g><path style="opacity:1" fill="#ad6d06" d="M 140.5,155.5 C 140.877,157.258 141.544,158.925 142.5,160.5C 142.376,161.107 142.043,161.44 141.5,161.5C 140.974,159.77 139.974,158.436 138.5,157.5C 138.833,156.5 139.5,155.833 140.5,155.5 Z"/></g>
<g><path style="opacity:1" fill="#f8ce1d" d="M 138.5,157.5 C 139.974,158.436 140.974,159.77 141.5,161.5C 139.833,161.5 138.167,161.5 136.5,161.5C 136.167,161.5 135.833,161.5 135.5,161.5C 136.167,160.5 136.833,159.5 137.5,158.5C 137.5,157.833 137.833,157.5 138.5,157.5 Z"/></g>
<g><path style="opacity:1" fill="#9b630e" d="M 123.5,158.5 C 126.228,158.171 128.562,158.837 130.5,160.5C 127.848,160.59 125.515,159.924 123.5,158.5 Z"/></g>
<g><path style="opacity:1" fill="#c28a0a" d="M 137.5,158.5 C 136.833,159.5 136.167,160.5 135.5,161.5C 133.585,161.784 131.919,161.451 130.5,160.5C 132.921,160.122 135.254,159.455 137.5,158.5 Z"/></g>
<g><path style="opacity:1" fill="#75df0a" d="M 34.5,136.5 C 56.5101,159.612 82.8435,166.612 113.5,157.5C 114.167,157.5 114.5,157.833 114.5,158.5C 114.5,166.167 114.5,173.833 114.5,181.5C 105.161,181.666 95.8274,181.5 86.5,181C 79.2184,180.354 72.5517,178.188 66.5,174.5C 51.8467,165.181 41.18,152.514 34.5,136.5 Z"/></g>
<g><path style="opacity:1" fill="#60d40f" d="M 114.5,158.5 C 127.614,164.07 141.28,165.903 155.5,164C 162.177,163.165 168.843,162.332 175.5,161.5C 175.813,164.247 175.48,166.914 174.5,169.5C 155.225,176.936 135.225,180.936 114.5,181.5C 114.5,173.833 114.5,166.167 114.5,158.5 Z"/></g>
</svg>
